{"glyphs":{"0":{"ha":668,"x_min":67,"x_max":697,"o":"m 693 617 l 660 296 q 598 138 650 206 q 474 33 546 69 q 319 -1 401 -3 q 169 51 238 1 q 78 179 104 100 q 67 253 67 217 q 71 331 67 290 l 104 651 q 165 808 114 740 q 289 913 217 876 q 442 948 361 950 q 593 896 524 946 q 649 840 628 871 q 685 768 671 808 q 697 694 697 731 q 693 617 697 657 m 629 571 q 636 640 633 607 q 635 705 639 674 q 619 766 632 736 q 581 825 607 796 q 461 886 529 878 q 329 868 393 894 q 219 785 265 842 q 164 651 172 729 l 135 376 q 128 307 131 340 q 128 242 125 274 q 144 181 132 211 q 183 122 156 151 q 260 71 217 86 q 347 58 303 56 q 435 78 392 60 q 513 127 478 96 q 571 201 547 158 q 600 296 594 244 l 629 571 m 571 788 q 601 729 593 758 q 609 670 608 700 q 605 610 610 640 q 597 547 600 579 q 584 422 590 485 q 571 296 578 358 q 543 209 565 247 q 488 144 521 171 q 415 102 456 117 q 335 88 375 88 q 257 106 294 89 q 192 160 219 124 q 162 218 169 189 q 154 277 154 247 q 158 338 154 307 q 167 400 163 368 q 180 526 174 463 q 193 651 186 589 q 244 774 200 724 q 348 846 289 825 q 468 854 407 867 q 571 788 529 842 m 532 501 q 537 542 533 514 q 543 603 540 571 q 547 663 546 635 q 544 706 549 692 q 508 766 533 743 q 453 796 483 789 q 388 797 422 803 q 326 772 354 790 q 277 722 297 753 q 253 651 257 692 q 242 549 247 600 q 231 446 236 497 q 226 405 229 433 q 221 344 224 376 q 217 284 218 313 q 219 242 215 256 q 281 163 236 185 q 374 150 325 140 q 464 197 424 160 q 511 296 504 235 q 522 399 517 347 q 532 501 526 450 m 518 660 q 512 569 518 614 q 501 478 506 524 q 492 387 496 432 q 482 296 488 342 q 437 209 475 239 q 355 178 399 179 q 276 203 311 176 q 243 288 242 231 q 251 378 246 333 q 263 469 257 424 q 272 560 268 515 q 282 651 276 606 q 306 715 286 689 q 351 755 325 742 q 408 769 378 768 q 464 759 439 771 q 504 722 489 747 q 518 660 519 697 m 397 251 q 417 281 414 265 q 424 314 421 296 q 428 347 426 331 q 431 381 429 364 l 460 651 q 453 685 461 671 q 431 706 444 699 q 399 710 417 713 q 365 696 382 708 q 345 667 349 682 q 339 633 342 651 q 336 600 338 617 q 332 567 335 583 q 318 431 325 499 q 304 296 311 364 q 310 263 301 276 q 333 242 319 249 q 365 237 347 235 q 397 251 382 239 z "},"1":{"ha":450,"x_min":115,"x_max":496,"o":"m 496 947 l 397 0 l 161 0 l 235 711 l 115 711 l 140 947 l 260 947 l 378 947 l 496 947 l 496 947 m 344 58 l 432 889 l 194 889 l 182 769 l 300 769 l 225 58 l 344 58 l 344 58 m 397 858 l 317 89 l 258 89 l 333 800 l 214 800 l 219 858 l 397 858 l 397 858 z "},"2":{"ha":668,"x_min":38,"x_max":703,"o":"m 67 286 l 69 308 q 144 473 83 400 q 296 576 206 546 q 390 593 343 593 q 436 608 415 593 q 461 649 457 622 q 449 694 465 678 q 410 710 432 710 q 367 697 388 711 q 343 653 346 682 l 106 653 q 150 786 114 728 q 239 883 186 844 q 355 938 292 922 q 478 946 418 954 q 591 902 539 938 q 674 801 643 867 q 699 710 694 758 q 692 615 703 663 q 655 524 681 568 q 590 444 629 481 q 508 386 550 407 q 413 358 465 365 q 365 356 388 356 q 321 332 342 357 q 310 311 314 324 q 303 285 306 299 q 301 259 301 272 q 299 238 300 246 l 357 238 l 379 238 l 654 238 l 631 0 l 38 0 l 67 286 m 129 307 l 103 60 l 576 60 l 589 178 l 374 178 l 351 178 l 233 178 q 237 213 235 190 q 242 263 239 236 q 250 312 244 289 q 263 347 256 335 q 331 407 286 389 q 373 415 353 415 q 413 418 393 415 q 497 447 457 425 q 566 499 536 468 q 615 571 596 531 q 639 656 635 611 q 631 740 643 700 q 594 811 618 781 q 533 862 569 842 q 454 888 497 882 q 368 882 411 893 q 288 847 325 871 q 222 789 251 824 q 178 711 193 754 l 304 711 q 347 752 322 738 q 399 770 372 767 q 451 765 426 774 q 496 735 476 756 q 519 687 514 714 q 517 633 524 660 q 492 584 510 607 q 446 547 474 561 q 391 534 418 533 q 336 528 364 535 q 233 481 283 517 q 164 403 192 449 q 129 307 136 358 m 557 149 l 550 89 l 135 89 l 158 306 q 200 408 165 361 q 288 481 235 454 q 344 499 315 496 q 404 506 374 503 q 508 561 465 511 q 550 640 543 600 q 544 712 557 679 q 503 768 532 744 q 440 799 475 792 q 365 794 404 807 q 293 742 326 781 l 224 742 q 278 806 246 779 q 347 846 310 832 q 425 860 385 860 q 501 843 465 860 q 564 798 539 826 q 600 734 589 769 q 608 659 611 699 q 588 581 606 619 q 542 512 568 539 q 474 465 515 485 q 393 446 432 447 q 354 442 374 443 q 315 432 335 440 q 251 381 276 414 q 218 307 225 347 q 208 228 211 267 q 201 149 206 189 l 349 149 l 371 149 l 557 149 z "},"3":{"ha":668,"x_min":63,"x_max":711,"o":"m 528 936 q 640 860 597 913 q 697 744 683 808 q 693 608 711 679 q 624 478 675 538 q 665 347 663 417 q 641 212 668 276 q 560 95 614 147 q 432 18 507 43 q 288 7 357 -6 q 169 59 219 19 q 90 161 118 99 q 71 300 63 224 l 308 300 q 328 251 306 268 q 382 244 351 233 q 408 260 397 250 q 423 285 418 271 q 426 313 428 299 q 415 339 425 326 q 394 353 407 349 q 365 360 381 358 q 335 360 350 361 q 310 360 319 360 l 196 360 l 221 596 l 397 596 q 432 606 417 596 q 456 631 447 615 q 464 665 464 647 q 451 697 464 682 q 422 714 439 711 q 388 710 404 717 q 360 690 372 704 q 346 656 347 675 l 108 656 q 157 793 117 731 q 256 895 197 856 q 387 947 315 935 q 528 936 458 960 m 550 478 q 615 570 589 525 q 643 679 642 615 q 618 782 643 735 q 547 858 593 829 q 444 892 500 889 q 338 874 389 894 q 244 813 286 854 q 182 715 203 772 l 308 715 q 358 759 329 744 q 418 774 388 774 q 475 758 449 774 q 515 714 501 743 q 524 652 529 685 q 500 594 518 619 q 453 551 482 568 q 389 538 424 535 l 274 538 l 261 418 q 291 418 269 418 q 338 418 313 418 q 384 417 363 418 q 414 414 406 415 q 471 369 451 401 q 485 297 490 338 q 450 224 479 253 q 384 185 421 194 q 312 188 347 175 q 258 240 276 201 l 132 240 q 174 142 140 183 q 254 81 207 101 q 358 64 301 61 q 468 97 414 67 q 554 172 519 125 q 600 276 589 219 q 606 335 607 308 q 597 385 604 361 q 576 432 589 410 q 550 478 564 454 m 556 814 q 603 738 589 782 q 610 646 618 694 q 574 554 603 592 q 513 478 546 517 q 558 401 538 439 q 575 310 578 364 q 549 217 572 261 q 485 142 525 174 q 394 98 443 108 q 302 97 346 88 q 222 136 258 107 q 169 211 186 165 l 239 211 q 295 163 261 178 q 366 152 329 149 q 437 176 403 156 q 493 235 471 197 q 516 310 515 272 q 501 380 517 349 q 453 431 485 411 q 379 449 421 450 l 293 449 l 300 507 l 385 507 q 462 524 426 506 q 520 574 497 543 q 551 644 543 606 q 544 719 558 682 q 501 778 531 757 q 435 803 471 799 q 362 792 399 807 q 296 744 325 778 l 226 744 q 294 819 253 790 q 382 858 336 849 q 474 858 428 868 q 556 814 519 847 z "},"4":{"ha":1157,"x_min":97,"x_max":728,"o":"m 690 593 l 629 0 l 393 0 l 424 296 q 315 301 367 296 q 215 339 264 307 q 140 410 167 371 q 101 508 113 450 q 98 558 97 529 q 101 619 99 588 q 108 678 104 650 q 114 728 111 707 q 125 838 119 783 q 136 949 131 893 l 372 949 l 367 889 q 356 792 361 840 q 346 694 351 743 q 344 670 346 689 q 340 631 342 651 q 337 592 338 610 q 338 568 336 574 q 358 542 344 550 q 386 533 371 535 q 418 532 401 531 q 449 533 435 533 l 488 911 l 492 949 l 728 949 l 690 593 m 576 58 l 664 889 l 544 889 l 500 474 q 472 474 493 474 q 426 474 450 474 q 381 474 403 474 q 353 478 360 475 q 295 519 317 489 q 276 589 274 549 q 291 739 282 664 q 308 889 300 814 l 189 889 q 178 790 183 840 q 168 692 174 740 q 157 594 163 643 q 168 497 151 546 q 294 368 200 403 q 391 353 343 351 q 488 356 439 356 l 457 58 l 576 58 m 631 860 l 549 89 l 490 89 l 522 385 q 486 385 513 385 q 429 385 460 385 q 372 385 399 385 q 338 389 346 386 q 257 424 292 397 q 203 493 222 451 q 187 583 182 538 q 196 674 192 628 q 206 767 201 721 q 217 860 211 813 l 275 860 q 265 778 269 819 q 257 697 261 738 q 253 662 256 683 q 249 617 251 640 q 247 572 247 593 q 251 536 247 550 q 294 473 263 497 q 365 444 325 449 q 447 443 406 442 q 528 444 488 444 l 572 860 l 631 860 z "},"5":{"ha":668,"x_min":63,"x_max":729,"o":"m 729 951 l 706 714 l 432 714 l 410 714 l 350 714 l 338 596 q 428 593 385 596 q 514 571 471 590 q 586 523 557 551 q 636 453 615 494 q 661 367 656 413 q 658 278 667 322 q 629 190 650 233 q 575 111 608 147 q 467 31 525 57 q 349 2 408 4 q 237 20 290 0 q 144 79 183 40 q 83 174 104 118 q 69 299 63 229 l 306 299 q 313 264 303 278 q 338 244 322 250 q 372 241 354 238 q 406 260 390 244 q 426 294 422 276 q 422 326 429 311 q 400 349 415 340 q 364 358 385 358 l 76 358 l 138 951 l 729 951 m 653 774 l 665 892 l 190 892 l 140 418 l 324 418 q 371 418 349 418 q 413 413 393 418 q 449 394 433 408 q 476 354 465 381 q 484 289 490 319 q 459 234 478 258 q 412 195 440 210 q 355 180 383 181 q 299 193 326 179 q 257 240 272 207 l 131 240 q 167 147 139 185 q 235 88 194 108 q 322 63 275 67 q 416 74 369 60 q 504 120 463 88 q 574 204 546 153 q 603 349 611 275 q 543 475 594 422 q 481 517 514 504 q 415 535 449 531 q 345 538 381 539 q 272 536 310 536 l 297 774 l 653 774 m 632 863 l 625 803 l 269 803 l 239 507 l 368 507 q 432 501 403 507 q 490 478 461 496 q 564 384 543 444 q 564 257 585 324 q 485 142 540 183 q 368 93 431 100 q 249 115 306 86 q 168 210 193 143 l 238 210 q 288 164 258 178 q 351 151 318 150 q 415 165 383 151 q 470 203 446 179 q 507 261 494 228 q 514 333 519 294 q 467 417 506 386 q 376 447 429 447 l 174 447 l 218 863 l 632 863 z "},"6":{"ha":668,"x_min":71,"x_max":708,"o":"m 72 293 q 76 339 74 317 q 82 385 79 361 q 90 472 86 429 q 100 558 94 514 q 109 644 104 603 q 126 726 114 686 q 163 802 139 765 q 229 874 188 839 q 338 936 281 917 q 449 953 394 956 q 553 927 504 950 q 637 865 601 904 q 690 773 672 826 q 701 656 708 719 l 465 656 q 460 685 467 672 q 441 706 453 699 q 414 715 429 714 q 382 707 399 715 q 357 685 365 699 q 345 656 349 671 q 342 624 342 640 q 340 596 342 608 q 428 592 388 596 q 506 576 469 589 q 572 539 542 564 q 628 471 603 514 q 659 394 650 435 q 665 310 668 353 q 648 226 663 268 q 607 147 633 185 q 478 36 553 72 q 329 3 404 0 q 322 4 328 4 l 318 4 q 304 6 308 4 l 299 6 q 293 7 296 7 q 288 8 290 7 q 263 14 271 11 q 257 15 258 14 q 253 16 254 15 q 250 17 253 17 q 144 83 188 36 q 81 192 100 129 q 80 194 81 193 q 79 197 79 196 q 77 207 78 203 q 75 217 76 211 q 72 254 72 236 q 72 292 71 272 l 72 293 m 515 715 l 642 715 q 606 804 633 767 q 541 863 579 842 q 458 890 503 885 q 367 884 413 896 q 281 843 322 872 q 208 767 239 814 q 178 699 186 733 q 165 629 169 665 q 158 558 163 593 q 150 486 154 522 q 143 415 147 450 q 135 343 139 379 q 131 274 132 307 q 142 204 131 240 q 191 122 158 154 q 265 76 224 90 q 353 63 307 61 q 444 83 400 65 q 524 137 488 101 q 583 224 561 172 q 603 363 615 293 q 540 481 592 433 q 478 520 510 508 q 414 535 447 532 q 346 538 381 539 q 275 536 311 536 q 281 590 278 564 q 286 644 283 617 q 299 697 289 674 q 333 742 308 719 q 383 769 356 761 q 435 773 410 776 q 482 755 461 769 q 515 715 503 740 m 490 481 q 566 388 544 447 q 568 264 588 329 q 496 149 549 192 q 382 95 443 106 q 264 110 321 85 q 178 199 207 135 q 163 259 164 229 q 164 322 161 289 q 170 386 167 354 q 178 450 174 418 q 183 499 179 463 q 190 576 186 535 q 200 655 194 618 q 210 704 206 692 q 290 815 235 775 q 406 862 344 856 q 523 840 468 868 q 603 744 578 811 l 533 744 q 488 787 515 772 q 428 803 460 801 q 366 792 397 804 q 308 756 335 781 q 269 700 281 728 q 256 636 258 672 q 248 572 251 604 q 242 507 244 539 l 369 507 q 433 502 403 507 q 490 481 463 497 m 461 194 q 501 248 488 218 q 517 308 515 278 q 508 366 518 338 q 474 415 497 394 q 420 443 449 438 q 360 449 392 449 l 235 449 l 222 324 q 222 263 219 292 q 243 207 224 235 q 288 167 261 181 q 345 151 315 153 q 406 160 375 150 q 461 194 436 171 m 451 392 q 480 352 471 375 q 488 306 489 329 q 475 258 486 282 q 443 215 464 233 q 397 189 422 197 q 349 182 372 181 q 303 194 325 183 q 268 225 282 204 q 251 270 253 247 q 253 318 250 293 q 258 368 256 343 q 263 418 260 393 l 361 418 q 410 414 388 418 q 451 392 432 410 m 406 258 q 428 303 426 278 q 411 346 431 329 q 390 356 403 353 q 364 359 378 358 q 337 359 350 360 q 315 358 324 358 q 313 337 314 350 q 310 310 311 324 q 311 284 310 297 q 318 263 313 271 q 359 240 333 242 q 406 258 385 239 z "},"7":{"ha":668,"x_min":110,"x_max":728,"o":"m 728 949 l 703 711 l 444 0 l 199 0 l 458 711 l 110 711 l 135 949 l 728 949 l 728 949 m 644 719 l 663 889 l 189 889 l 176 771 l 542 771 l 282 60 l 404 60 l 644 719 l 644 719 m 631 860 l 615 724 l 383 89 l 322 89 l 583 800 l 210 800 l 217 860 l 631 860 l 631 860 z "},"8":{"ha":668,"x_min":57,"x_max":707,"o":"m 431 947 q 586 901 522 947 q 678 784 650 854 q 694 631 707 714 q 618 474 681 547 q 658 371 650 425 q 655 264 667 317 q 615 163 643 211 q 544 79 586 115 q 447 22 501 43 q 332 0 393 0 q 176 47 240 0 q 85 164 113 93 q 69 317 57 235 q 144 474 82 400 q 101 631 97 547 q 149 785 106 714 q 265 901 192 856 q 431 947 339 947 m 626 597 q 640 668 638 635 q 631 738 642 701 q 556 848 611 807 q 425 889 500 889 q 287 848 351 889 q 188 738 222 807 q 165 668 171 701 q 164 597 158 635 q 184 532 169 561 q 218 474 199 503 q 173 416 194 446 q 138 350 151 386 q 132 210 114 281 q 208 100 153 142 q 338 58 264 58 q 477 100 413 58 q 575 210 542 142 q 599 280 593 246 q 600 350 604 314 q 579 416 594 386 q 544 474 564 446 q 590 532 568 503 q 626 597 613 561 m 507 474 q 541 419 525 446 q 565 365 557 393 q 572 306 574 338 q 554 235 571 274 q 468 128 526 168 q 340 89 410 89 q 222 128 272 89 q 158 233 172 168 q 155 304 150 272 q 174 365 160 336 q 210 419 189 393 q 256 474 232 446 q 222 528 238 501 q 197 582 206 554 q 191 642 189 610 q 210 714 193 674 q 294 819 236 779 q 421 858 353 858 q 540 819 490 858 q 606 714 590 779 q 608 642 614 674 q 588 582 603 610 q 552 528 574 554 q 507 474 531 501 m 549 651 q 542 709 551 682 q 515 756 533 736 q 472 788 497 776 q 415 800 446 800 q 356 788 385 800 q 306 756 328 776 q 270 709 285 736 q 253 651 256 682 q 258 594 250 621 q 285 547 267 567 q 328 515 303 526 q 385 503 354 503 q 444 515 415 503 q 494 547 472 526 q 531 594 517 567 q 549 651 546 621 m 511 296 q 505 353 514 326 q 478 401 496 381 q 434 433 460 421 q 378 444 408 444 q 319 433 347 444 q 269 401 290 421 q 233 353 247 381 q 215 296 218 326 q 221 238 213 265 q 247 191 229 211 q 291 159 265 171 q 347 147 317 147 q 406 159 378 147 q 457 191 435 171 q 494 238 479 211 q 511 296 508 265 m 413 769 q 458 760 438 769 q 494 735 479 751 q 515 698 508 719 q 519 651 522 676 q 476 568 514 603 q 388 533 438 533 q 342 542 363 533 q 308 567 322 551 q 286 605 293 583 q 282 651 279 626 q 296 698 285 676 q 325 735 307 719 q 365 760 343 751 q 413 769 388 769 m 460 651 q 447 694 463 676 q 406 711 431 711 q 363 694 382 711 q 342 651 344 676 q 354 610 339 628 q 393 592 369 592 q 438 610 418 592 q 460 651 457 628 m 375 414 q 421 405 400 414 q 456 380 442 396 q 478 342 471 364 q 482 296 485 321 q 438 213 476 247 q 350 178 400 178 q 305 187 325 178 q 270 212 285 196 q 249 249 256 228 q 244 296 242 271 q 258 342 247 321 q 288 380 269 364 q 328 405 306 396 q 375 414 350 414 m 422 296 q 409 338 425 321 q 368 356 393 356 q 326 338 344 356 q 304 296 307 321 q 317 254 301 272 q 356 236 332 236 q 400 254 381 236 q 422 296 419 272 z "},"9":{"ha":1157,"x_min":60,"x_max":701,"o":"m 440 951 l 449 951 l 453 951 q 467 950 457 950 q 469 949 468 950 q 472 949 471 949 q 478 948 475 949 q 483 947 481 947 q 507 942 497 944 l 510 942 q 512 941 511 942 q 514 940 513 940 l 515 940 q 522 939 517 939 q 628 872 583 918 q 690 764 672 826 q 694 751 693 757 q 696 739 694 746 q 700 663 701 700 q 695 616 697 639 q 690 569 693 593 q 681 483 685 526 q 672 397 676 440 q 663 311 668 353 q 644 230 657 269 q 608 153 632 190 q 543 82 585 117 q 378 6 465 17 q 218 28 290 -4 q 103 132 146 61 q 69 300 60 203 l 306 300 q 330 249 303 265 q 388 247 357 232 q 413 269 404 256 q 425 299 421 283 q 430 331 429 315 q 432 358 431 346 q 344 362 385 358 q 267 378 303 365 q 199 417 231 392 q 143 485 168 442 q 106 644 99 557 q 165 808 113 732 q 292 919 218 883 q 440 951 367 954 m 606 326 q 613 397 610 363 q 621 468 617 432 q 628 540 624 504 q 636 611 632 575 q 640 681 639 647 q 629 750 642 715 q 545 860 604 825 q 418 892 486 894 q 285 849 350 889 q 188 732 221 808 q 167 592 156 661 q 231 474 179 522 q 292 434 260 446 q 357 419 324 422 q 425 417 390 415 q 496 418 460 418 q 490 365 493 390 q 485 311 488 339 q 472 258 482 282 q 439 214 463 235 q 389 187 415 194 q 337 183 363 179 q 290 201 311 186 q 257 240 269 215 l 131 240 q 165 150 139 188 q 230 91 192 113 q 313 64 268 69 q 404 70 358 58 q 492 111 450 82 q 564 188 533 140 q 594 256 585 222 q 606 326 603 290 m 594 506 q 590 456 593 493 q 581 378 586 419 q 571 299 576 336 q 561 250 565 263 q 481 140 536 179 q 365 94 426 100 q 248 116 303 88 q 168 211 193 144 l 238 211 q 283 169 256 183 q 342 152 311 154 q 406 162 374 150 q 464 199 438 174 q 502 255 492 226 q 517 318 513 283 l 529 447 l 401 447 q 339 453 368 447 q 281 475 310 458 q 206 566 228 507 q 203 692 183 625 q 244 774 215 739 q 311 831 274 810 q 390 860 349 853 q 471 858 432 867 q 543 824 510 849 q 596 756 576 799 q 610 696 608 726 q 607 633 611 665 q 601 569 604 601 q 594 506 597 538 m 536 507 l 549 632 q 550 692 553 664 q 528 749 547 721 q 483 788 510 774 q 426 803 456 801 q 365 794 396 804 q 310 760 335 783 q 269 706 283 736 q 254 647 256 676 q 263 589 253 617 q 297 540 274 561 q 351 513 322 518 q 411 507 379 507 l 536 507 m 519 636 q 514 586 517 611 q 508 536 511 561 l 410 536 q 360 540 383 536 q 318 563 338 544 q 290 602 299 579 q 283 649 282 625 q 296 696 285 672 q 328 739 307 719 q 374 766 349 757 q 422 774 399 775 q 467 761 446 772 q 503 729 489 750 q 520 685 518 707 q 519 636 522 663 m 457 596 q 459 617 457 604 q 461 644 461 631 q 460 671 461 658 q 453 692 458 683 q 412 715 438 713 q 365 697 386 717 q 343 651 344 678 q 361 610 342 625 q 381 600 368 603 q 407 596 393 597 q 435 595 421 594 q 457 596 449 596 z "},"\u0000":{"ha":0,"x_min":0,"x_max":0,"o":""},"\r":{"ha":410,"x_min":0,"x_max":0,"o":""}," ":{"ha":410,"x_min":0,"x_max":0,"o":""},"E":{"ha":668,"x_min":40,"x_max":731,"o":"m 656 236 l 632 0 l 276 0 l 218 0 l 40 0 l 139 947 l 317 947 l 375 947 l 731 947 l 706 710 l 350 710 l 338 592 l 693 592 l 668 354 l 313 354 l 300 236 l 656 236 l 656 236 m 579 58 l 592 178 l 236 178 l 261 414 l 617 414 l 629 532 l 274 532 l 299 769 l 654 769 l 667 888 l 369 888 l 311 888 l 192 888 l 104 58 l 224 58 l 282 58 l 579 58 l 579 58 m 558 147 l 551 89 l 285 89 l 226 89 l 138 89 l 218 858 l 307 858 l 365 858 l 632 858 l 626 799 l 272 799 l 242 503 l 596 503 l 589 443 l 235 443 l 204 147 l 558 147 l 558 147 z "},"R":{"ha":668,"x_min":40,"x_max":706,"o":"m 315 949 q 414 949 367 949 q 504 940 461 949 q 585 906 547 931 q 657 835 624 882 q 694 749 683 794 q 701 656 706 703 q 676 562 696 608 q 621 475 656 515 q 660 363 657 419 q 657 244 664 307 q 644 122 650 182 q 632 0 639 63 l 394 0 q 406 113 400 57 q 418 225 411 168 q 420 249 418 233 q 424 280 422 264 q 424 310 425 296 q 417 333 422 325 q 395 349 408 344 q 367 356 382 354 q 338 356 353 357 q 313 356 324 356 l 276 0 l 217 0 l 40 0 l 139 949 l 315 949 m 578 60 q 589 168 583 114 q 600 276 594 222 q 603 337 604 311 q 595 384 601 363 q 577 426 589 406 q 547 475 565 447 q 609 558 583 517 q 640 657 635 599 q 628 754 644 708 q 576 833 611 800 q 491 879 536 869 q 393 889 446 889 l 192 889 l 104 60 l 222 60 l 260 415 q 328 417 294 415 q 396 414 361 419 q 453 386 429 408 q 485 331 478 364 q 485 303 486 322 q 481 263 483 283 q 477 222 479 242 q 474 194 475 203 q 467 128 471 161 q 460 60 463 94 l 578 60 m 574 293 q 563 191 568 242 q 551 89 557 140 l 492 89 q 500 163 496 126 q 507 236 504 200 q 515 308 511 274 q 499 379 518 343 q 449 428 479 411 q 381 444 418 444 l 233 444 l 196 89 l 136 89 l 218 860 l 401 860 q 490 849 451 860 q 563 801 529 838 q 606 726 594 769 q 608 635 617 682 q 570 547 599 583 q 510 475 542 511 q 536 434 524 454 q 558 392 549 414 q 572 347 568 371 q 574 293 576 322 m 431 510 q 513 564 479 525 q 551 651 546 603 q 531 741 557 701 q 461 794 506 781 q 423 799 450 797 q 366 800 396 800 q 308 800 336 800 q 271 800 281 800 l 240 504 q 277 504 250 504 q 335 504 304 504 q 392 506 365 504 q 431 510 419 507 m 449 765 q 506 723 485 754 q 522 651 526 692 q 491 581 518 613 q 425 539 464 550 q 395 535 417 536 q 349 533 374 533 q 302 533 324 533 q 272 533 281 533 l 297 771 q 327 771 306 771 q 373 771 349 771 q 419 769 397 771 q 449 765 440 768 m 463 651 q 456 687 465 671 q 426 708 446 703 q 388 713 407 715 q 350 711 369 711 l 338 593 q 376 591 357 593 q 415 596 394 589 q 447 617 435 601 q 463 651 460 632 z "},"F":{"ha":668,"x_min":42,"x_max":733,"o":"m 696 593 l 671 356 l 315 356 l 279 0 l 219 0 l 42 0 l 140 949 l 318 949 l 378 949 l 733 949 l 708 711 l 353 711 l 340 593 l 696 593 l 696 593 m 618 415 l 631 533 l 275 533 l 300 771 l 656 771 l 668 889 l 372 889 l 313 889 l 194 889 l 107 60 l 225 60 l 263 415 l 618 415 l 618 415 m 599 504 l 592 444 l 236 444 l 199 89 l 139 89 l 221 860 l 636 860 l 629 800 l 274 800 l 243 504 l 599 504 l 599 504 z "},"O":{"ha":668,"x_min":67,"x_max":697,"o":"m 693 617 l 660 296 q 598 138 650 206 q 474 33 546 69 q 319 -1 401 -3 q 169 51 238 1 q 78 179 104 100 q 67 253 67 217 q 71 331 67 290 l 104 651 q 165 808 114 740 q 289 913 217 876 q 442 948 361 950 q 593 896 524 946 q 649 840 628 871 q 685 768 671 808 q 697 694 697 731 q 693 617 697 657 m 629 571 q 636 640 633 607 q 635 705 639 674 q 619 766 632 736 q 581 825 607 796 q 461 886 529 878 q 329 868 393 894 q 219 785 265 842 q 164 651 172 729 l 135 376 q 128 307 131 340 q 128 242 125 274 q 144 181 132 211 q 183 122 156 151 q 260 71 217 86 q 347 58 303 56 q 435 78 392 60 q 513 127 478 96 q 571 201 547 158 q 600 296 594 244 l 629 571 m 571 788 q 601 729 593 758 q 609 670 608 700 q 605 610 610 640 q 597 547 600 579 q 584 422 590 485 q 571 296 578 358 q 543 209 565 247 q 488 144 521 171 q 415 102 456 117 q 335 88 375 88 q 257 106 294 89 q 192 160 219 124 q 162 218 169 189 q 154 277 154 247 q 158 338 154 307 q 167 400 163 368 q 180 526 174 463 q 193 651 186 589 q 244 774 200 724 q 348 846 289 825 q 468 854 407 867 q 571 788 529 842 m 532 501 q 537 542 533 514 q 543 603 540 571 q 547 663 546 635 q 544 706 549 692 q 508 766 533 743 q 453 796 483 789 q 388 797 422 803 q 326 772 354 790 q 277 722 297 753 q 253 651 257 692 q 242 549 247 600 q 231 446 236 497 q 226 405 229 433 q 221 344 224 376 q 217 284 218 313 q 219 242 215 256 q 281 163 236 185 q 374 150 325 140 q 464 197 424 160 q 511 296 504 235 q 522 399 517 347 q 532 501 526 450 m 518 660 q 512 569 518 614 q 501 478 506 524 q 492 387 496 432 q 482 296 488 342 q 437 209 475 239 q 355 178 399 179 q 276 203 311 176 q 243 288 242 231 q 251 378 246 333 q 263 469 257 424 q 272 560 268 515 q 282 651 276 606 q 306 715 286 689 q 351 755 325 742 q 408 769 378 768 q 464 759 439 771 q 504 722 489 747 q 518 660 519 697 m 397 251 q 417 281 414 265 q 424 314 421 296 q 428 347 426 331 q 431 381 429 364 l 460 651 q 453 685 461 671 q 431 706 444 699 q 399 710 417 713 q 365 696 382 708 q 345 667 349 682 q 339 633 342 651 q 336 600 338 617 q 332 567 335 583 q 318 431 325 499 q 304 296 311 364 q 310 263 301 276 q 333 242 319 249 q 365 237 347 235 q 397 251 382 239 z "},"A":{"ha":668,"x_min":38,"x_max":699,"o":"m 667 356 l 631 0 l 393 0 l 417 236 l 299 236 l 275 0 l 38 0 q 61 235 49 118 q 86 469 74 351 q 91 517 88 483 q 99 587 94 550 q 108 657 103 624 q 117 704 113 690 q 170 813 133 763 q 260 896 207 863 q 374 942 314 931 q 488 942 433 953 q 590 899 543 931 q 665 815 636 867 q 688 760 681 788 q 697 706 696 733 q 697 649 699 678 q 692 590 694 621 l 683 503 l 667 356 m 626 542 q 635 601 631 572 q 640 660 639 631 q 635 718 640 689 q 617 776 631 747 q 540 859 590 829 q 428 889 490 889 q 308 859 365 889 q 213 776 251 829 q 181 718 192 747 q 165 660 171 689 q 158 601 160 631 q 153 542 157 572 l 103 58 l 221 58 l 246 296 l 483 296 l 458 58 l 576 58 l 626 542 m 594 751 q 607 699 604 728 q 608 642 610 671 q 603 585 607 613 q 597 533 600 557 q 574 310 586 421 q 550 89 561 200 l 490 89 l 515 325 l 219 325 l 194 89 l 135 89 q 158 311 146 201 q 182 533 171 421 q 187 585 185 557 q 194 642 189 613 q 206 699 199 671 q 229 750 214 726 q 314 830 263 801 q 424 858 365 858 q 526 830 481 858 q 594 751 571 801 m 522 385 q 535 510 529 447 q 549 635 542 572 q 545 698 551 668 q 522 751 539 728 q 480 787 506 774 q 418 800 454 800 q 353 787 382 800 q 302 751 324 774 q 268 698 281 728 q 253 635 256 668 q 240 510 246 572 q 226 385 233 447 l 522 385 m 518 626 q 507 520 513 574 q 496 414 501 467 l 258 414 q 269 520 264 467 q 281 626 275 574 q 290 678 283 654 q 317 726 296 703 q 361 760 339 750 q 415 769 383 769 q 501 726 472 769 q 519 678 518 703 q 518 626 521 654 m 457 610 q 462 642 458 626 q 458 676 465 658 q 408 711 447 711 q 375 703 388 711 q 351 676 363 696 q 340 642 340 658 q 339 610 340 626 q 331 542 335 575 q 324 474 328 508 l 442 474 q 449 542 446 508 q 457 610 453 575 z "},"C":{"ha":668,"x_min":69,"x_max":710,"o":"m 701 654 l 464 654 q 452 695 467 678 q 414 714 438 713 q 370 698 390 714 q 346 658 350 682 q 335 567 339 613 q 328 476 332 522 q 316 385 322 431 q 308 294 310 340 q 324 251 307 265 q 363 237 342 236 q 404 253 385 238 q 426 299 424 269 l 660 299 l 664 299 q 616 162 656 224 q 518 60 576 100 q 390 7 460 21 q 250 15 319 -7 q 139 85 185 36 q 78 201 93 135 q 70 268 69 235 q 75 336 71 301 q 83 406 79 372 q 90 476 86 440 q 97 546 93 511 q 104 615 101 581 q 114 685 108 651 q 135 751 119 718 q 220 867 165 818 q 346 938 275 917 q 488 946 419 960 q 606 892 556 932 q 683 791 656 853 q 701 654 710 729 m 514 714 l 642 714 q 601 810 633 769 q 522 871 568 850 q 422 891 476 892 q 313 863 367 890 q 225 790 261 835 q 175 692 189 746 q 169 651 172 682 q 161 584 165 619 q 154 517 157 549 q 150 476 151 486 q 145 435 149 467 q 138 369 142 404 q 132 302 135 333 q 129 261 129 271 q 159 163 132 207 q 231 90 186 118 q 334 61 279 63 q 439 81 389 60 q 530 142 489 101 q 592 239 571 183 l 464 239 q 415 195 444 210 q 357 180 386 181 q 301 193 328 179 q 260 236 275 207 q 248 294 244 265 q 254 354 251 324 q 261 416 257 386 q 268 476 265 446 q 274 538 271 507 q 281 599 278 568 q 286 658 283 629 q 311 717 289 688 q 361 760 332 746 q 419 773 390 774 q 474 758 449 772 q 514 714 500 743 m 601 743 l 533 743 q 484 788 514 772 q 421 803 454 803 q 354 788 388 803 q 296 744 321 774 q 263 681 269 713 q 253 614 256 649 q 245 545 249 579 q 239 476 242 511 q 231 408 235 442 q 224 340 228 374 q 220 273 221 304 q 239 210 219 242 q 288 165 258 181 q 351 150 318 150 q 418 165 385 150 q 476 210 451 181 l 544 210 q 480 137 519 165 q 395 98 440 108 q 306 96 350 88 q 225 133 261 104 q 173 203 189 161 q 160 292 157 244 q 168 385 163 339 q 179 476 174 431 q 188 568 183 522 q 199 661 192 614 q 231 750 206 708 q 297 819 257 792 q 386 858 339 849 q 476 856 433 867 q 551 817 518 846 q 601 743 585 788 z "},"G":{"ha":668,"x_min":65,"x_max":706,"o":"m 660 299 q 612 162 651 224 q 514 60 572 100 q 385 8 456 21 q 247 17 315 -6 q 135 86 181 38 q 75 201 90 135 q 67 268 65 235 q 72 338 68 301 q 80 407 76 372 q 88 476 83 442 q 94 547 90 513 q 101 617 99 581 q 111 685 106 651 q 132 751 117 718 q 217 867 163 818 q 343 938 272 917 q 484 946 417 960 q 601 892 551 932 q 678 791 651 853 q 697 654 706 729 l 461 654 q 447 699 464 681 q 403 714 429 717 q 358 691 372 711 q 340 644 343 671 q 330 545 335 594 q 319 447 325 496 q 315 398 317 422 q 310 349 313 374 q 305 301 307 329 q 319 256 303 274 q 362 240 336 238 q 407 263 388 242 q 418 284 414 271 q 425 310 422 297 q 428 337 428 324 q 431 358 429 350 l 328 358 l 353 596 l 692 596 l 660 299 m 599 283 q 607 347 604 315 q 614 410 610 378 q 620 473 617 442 q 626 536 624 504 l 404 536 l 392 418 l 494 418 q 492 390 494 411 q 488 346 490 369 q 482 301 485 322 q 476 274 479 281 q 435 212 465 238 q 367 182 406 186 q 299 194 331 176 q 254 244 268 211 q 247 276 249 257 q 247 315 246 296 q 251 354 249 335 q 256 386 254 374 q 263 458 258 422 q 271 531 267 494 q 273 558 271 536 q 278 603 275 579 q 283 649 281 628 q 288 675 286 669 q 328 741 299 717 q 393 772 358 765 q 461 764 428 778 q 511 714 494 750 l 638 714 q 584 826 626 782 q 485 884 542 869 q 364 883 428 899 q 246 817 300 868 q 201 761 218 789 q 176 704 185 733 q 163 644 167 675 q 156 581 160 614 q 142 455 149 518 q 129 328 136 392 q 135 205 122 258 q 206 107 149 151 q 317 63 254 69 q 442 85 379 57 q 546 165 504 113 q 599 283 588 218 m 593 507 q 583 395 586 450 q 569 285 581 340 q 522 181 558 228 q 432 111 485 135 q 321 93 376 88 q 222 132 265 99 q 163 219 174 172 q 160 326 153 265 q 172 438 167 383 q 183 549 176 493 q 188 603 186 576 q 194 658 189 631 q 208 711 199 685 q 238 764 218 738 q 328 840 275 815 q 435 861 382 864 q 533 828 489 858 q 599 743 578 799 l 529 743 q 465 794 504 781 q 387 799 426 807 q 313 763 347 792 q 261 689 278 735 q 255 656 258 681 q 248 606 251 632 q 242 555 244 579 q 239 522 240 531 q 231 439 235 481 q 221 356 226 397 q 216 313 218 333 q 215 274 214 293 q 223 235 217 254 q 244 197 229 215 q 311 155 271 165 q 394 158 351 144 q 468 204 438 171 q 510 279 499 238 q 515 322 514 301 q 519 363 517 342 q 524 405 522 383 q 528 447 525 426 l 425 447 l 432 507 l 593 507 z "},"I":{"ha":319,"x_min":42,"x_max":378,"o":"m 378 949 l 279 0 l 42 0 l 140 949 l 378 949 l 378 949 m 225 60 l 313 889 l 194 889 l 107 60 l 225 60 l 225 60 m 279 860 l 197 89 l 139 89 l 221 860 l 279 860 l 279 860 z "},"U":{"ha":668,"x_min":68,"x_max":729,"o":"m 671 390 q 663 320 667 354 q 651 253 660 286 q 628 187 643 219 q 586 122 613 154 q 472 32 538 64 q 335 0 406 0 q 203 33 263 0 q 107 124 143 65 q 78 188 86 156 q 69 253 69 219 q 72 320 68 286 q 79 390 75 354 l 138 949 l 374 949 l 343 653 q 340 623 340 638 q 336 593 339 608 q 328 510 332 551 q 319 428 324 469 l 307 315 q 313 261 304 285 q 358 238 322 238 q 409 261 394 238 q 426 315 424 285 l 439 428 q 449 522 444 475 q 458 617 453 568 q 460 634 460 625 q 463 653 461 643 l 493 949 l 729 949 l 671 390 m 554 172 q 585 231 575 201 q 601 289 596 260 q 608 347 606 318 q 613 407 610 376 q 638 648 625 529 q 664 889 651 767 l 546 889 l 521 653 l 517 617 q 504 499 510 557 q 492 382 499 440 q 489 351 490 369 q 485 315 488 333 q 478 278 483 296 q 467 247 474 260 q 418 197 449 215 q 353 178 388 178 q 290 197 317 178 q 251 247 263 215 q 247 278 247 260 q 249 315 247 296 q 252 351 250 333 q 256 382 254 369 q 267 488 263 435 q 278 593 272 540 l 285 653 l 310 889 l 190 889 q 165 648 178 767 q 139 407 151 529 q 132 347 136 376 q 126 289 128 318 q 131 231 125 260 q 151 172 136 201 q 228 90 178 119 q 340 60 278 60 q 459 90 403 60 q 554 172 515 119 m 585 415 q 580 363 582 392 q 573 306 578 335 q 560 249 568 276 q 536 197 551 221 q 453 119 504 147 q 343 90 401 90 q 240 119 285 90 q 172 197 194 147 q 159 249 161 221 q 158 306 157 276 q 164 363 160 335 q 171 415 168 392 q 194 638 182 528 q 218 860 206 747 l 276 860 l 254 653 l 247 593 q 235 475 240 533 q 224 358 231 417 q 216 286 219 321 q 232 217 213 251 q 281 167 250 185 q 350 149 313 149 q 422 167 388 149 q 481 217 457 185 q 511 286 507 251 q 519 358 515 321 q 533 488 526 424 q 546 617 539 551 l 550 653 l 572 860 l 632 860 q 608 638 619 747 q 585 415 596 528 z "},"S":{"ha":668,"x_min":61,"x_max":703,"o":"m 697 654 l 460 654 q 443 699 463 682 q 394 711 424 717 q 351 681 367 706 q 343 631 336 657 q 358 606 349 614 q 378 596 367 599 q 402 593 389 593 q 428 592 415 593 q 478 581 456 589 q 525 563 501 574 q 603 498 571 538 q 649 411 635 458 q 660 311 664 364 q 635 207 657 258 q 576 113 613 154 q 492 46 539 72 q 392 8 444 19 q 286 6 339 -3 q 190 40 233 14 q 118 106 147 67 q 75 194 89 144 q 67 299 61 244 l 304 299 q 321 253 301 271 q 369 240 340 235 q 413 270 397 246 q 421 321 428 294 q 406 345 415 338 q 385 356 397 353 q 361 358 374 358 q 336 360 349 358 q 285 370 308 363 q 239 389 263 378 q 161 453 193 414 q 115 540 129 493 q 103 640 100 588 q 129 746 106 693 q 188 838 151 797 q 272 906 225 879 q 372 944 319 933 q 478 946 425 954 q 574 911 531 938 q 646 846 617 885 q 689 758 675 807 q 697 654 703 708 m 508 713 l 636 713 q 602 801 629 763 q 535 862 575 839 q 448 890 496 885 q 350 878 400 894 q 260 828 300 861 q 197 752 221 794 q 165 660 172 710 q 172 564 157 611 q 218 484 188 518 q 293 432 249 450 q 338 421 315 424 q 383 417 360 418 q 431 403 413 414 q 465 371 450 393 q 481 326 478 350 q 477 279 483 303 q 456 235 471 256 q 419 200 442 214 q 372 181 396 185 q 324 183 347 178 q 283 202 301 188 q 256 239 265 217 l 128 239 q 162 151 135 189 q 228 90 189 113 q 316 63 268 68 q 414 74 364 57 q 503 124 464 90 q 567 199 543 157 q 599 291 592 242 q 592 388 606 340 q 547 467 578 433 q 471 519 515 501 q 426 531 449 528 q 381 535 404 533 q 333 548 353 538 q 299 581 314 558 q 283 625 286 601 q 285 672 279 649 q 307 717 292 696 q 344 751 322 738 q 392 769 367 765 q 440 769 417 774 q 481 749 463 764 q 508 713 499 735 m 597 742 l 529 742 q 456 797 501 785 q 367 794 411 808 q 290 742 324 779 q 253 651 257 706 q 273 565 249 603 q 342 513 297 526 q 386 506 364 506 q 429 500 408 506 q 511 458 478 489 q 561 384 546 426 q 571 297 576 342 q 541 208 565 251 q 475 135 517 165 q 385 95 432 104 q 294 97 338 86 q 217 135 251 107 q 167 210 183 164 l 235 210 q 308 155 263 167 q 397 158 353 143 q 474 209 440 172 q 511 300 507 246 q 492 387 517 349 q 422 439 467 425 q 378 446 400 446 q 335 451 356 446 q 253 493 289 461 q 202 567 217 524 q 193 655 188 610 q 223 743 199 700 q 289 817 247 786 q 379 856 332 847 q 469 855 426 865 q 547 816 513 844 q 597 742 581 788 z "},"L":{"ha":579,"x_min":46,"x_max":560,"o":"m 560 238 l 536 0 l 282 0 l 46 0 l 69 238 l 144 949 l 381 949 l 306 238 l 560 238 l 560 238 m 482 60 l 494 178 l 242 178 l 317 889 l 199 889 l 129 238 l 117 118 l 111 60 l 482 60 l 482 60 m 463 149 l 456 89 l 143 89 l 225 860 l 285 860 l 210 149 l 463 149 l 463 149 z "},"M":{"ha":1044,"x_min":47,"x_max":1068,"o":"m 468 632 q 462 688 471 664 q 417 711 453 711 q 366 688 381 711 q 349 633 351 664 q 343 577 346 606 q 338 521 340 549 q 327 427 332 474 q 318 332 322 381 q 316 315 317 324 q 314 296 315 306 l 283 0 l 47 0 q 81 327 64 164 q 115 654 97 490 q 149 766 122 715 q 217 855 176 817 q 308 917 257 893 q 411 947 358 942 q 517 939 464 953 q 614 889 569 925 q 722 939 667 925 q 828 947 776 953 q 926 917 881 942 q 1003 855 971 893 q 1052 766 1036 817 q 1063 654 1068 715 q 1029 327 1047 490 q 994 0 1011 164 l 758 0 l 789 296 q 792 326 790 311 q 794 356 793 340 q 804 438 800 397 q 813 521 808 479 q 818 576 815 549 q 824 632 821 604 q 817 688 826 664 q 772 711 808 711 q 722 688 736 711 q 704 633 707 664 l 688 474 l 675 346 q 674 332 674 342 l 669 296 l 639 0 l 403 0 l 433 296 l 439 356 l 451 474 l 468 632 m 942 60 q 972 349 957 206 q 1003 640 988 493 q 981 778 1011 717 q 881 871 950 840 q 813 889 846 886 q 739 883 779 892 q 669 856 701 875 q 606 814 638 838 q 551 856 578 838 q 486 883 524 875 q 415 889 449 892 q 343 871 381 886 q 224 778 267 840 q 174 640 182 717 q 143 349 158 493 q 113 60 128 206 l 231 60 l 256 296 l 260 332 q 272 450 267 392 q 283 567 276 508 q 286 597 285 579 q 290 634 288 615 q 297 671 293 653 q 308 701 301 689 q 358 751 326 733 q 424 769 389 769 q 487 751 460 769 q 525 701 514 733 q 529 671 529 689 q 528 634 529 653 q 524 597 526 615 q 519 567 521 579 q 509 461 514 514 q 497 356 504 408 q 494 326 496 340 q 492 296 493 311 l 467 60 l 586 60 l 611 296 l 615 332 q 627 450 622 392 q 639 567 632 508 q 642 597 640 579 q 646 634 643 615 q 653 671 649 653 q 664 701 657 689 q 713 751 682 733 q 779 769 744 769 q 842 751 814 769 q 881 701 869 733 q 885 671 885 689 q 883 634 885 653 q 879 597 882 615 q 875 567 876 579 q 865 461 869 514 q 853 356 860 408 l 847 296 l 822 60 l 942 60 m 971 633 q 943 361 957 496 q 914 89 929 226 l 856 89 l 878 296 l 883 356 q 896 474 890 415 q 908 590 901 532 q 915 663 913 628 q 899 732 918 697 q 851 782 882 764 q 782 800 819 800 q 710 783 744 800 q 651 733 675 765 q 631 698 638 715 q 620 663 624 681 q 615 626 617 644 q 611 590 613 608 q 598 461 604 525 q 585 332 592 397 q 583 315 583 324 q 581 296 582 306 l 558 89 l 500 89 l 522 296 q 525 326 524 311 q 528 356 526 340 q 540 473 535 414 q 553 590 546 532 q 560 663 557 628 q 543 732 563 697 q 495 782 526 764 q 426 800 464 800 q 354 783 389 800 q 296 733 319 765 q 275 698 282 715 q 265 663 268 681 q 259 626 261 644 q 256 590 257 608 q 242 461 249 525 q 229 332 236 397 l 225 296 l 203 89 l 144 89 q 174 361 160 226 q 201 633 188 496 q 248 763 210 706 q 361 847 286 821 q 436 860 403 861 q 497 849 469 860 q 550 819 525 838 q 601 778 575 800 q 663 819 633 800 q 722 849 692 838 q 786 860 753 860 q 858 847 819 861 q 953 763 928 821 q 971 633 979 706 z "},"Y":{"ha":668,"x_min":92,"x_max":729,"o":"m 729 949 q 711 774 719 861 q 693 599 703 686 q 629 433 683 507 q 486 321 575 358 l 453 0 l 217 0 l 250 321 q 131 433 169 358 q 101 599 92 507 q 119 774 111 686 q 138 949 128 861 l 374 949 q 363 836 368 892 q 350 724 357 781 q 344 667 347 696 q 339 611 342 639 q 345 557 336 581 q 390 533 354 533 q 441 557 426 533 q 458 611 456 581 q 464 667 461 639 q 469 724 467 696 q 482 836 476 781 q 493 949 488 892 l 729 949 m 633 585 q 650 737 643 661 q 665 889 657 813 l 546 889 q 533 768 539 828 q 519 647 526 708 q 515 588 517 617 q 492 531 513 560 q 444 489 472 504 q 383 474 415 474 q 328 489 353 474 q 290 531 303 504 q 278 588 275 560 q 283 647 281 617 q 297 768 290 708 q 310 889 303 828 l 192 889 q 174 737 183 813 q 160 585 164 661 q 196 444 154 504 q 249 394 219 413 q 313 360 278 375 l 281 60 l 400 60 l 432 360 q 502 394 468 375 q 565 444 536 413 q 610 510 594 476 q 633 585 626 543 m 617 718 q 610 647 613 682 q 601 576 608 613 q 578 508 594 538 q 533 450 561 478 q 472 408 504 422 q 403 379 439 394 l 372 89 l 314 89 l 344 379 q 285 408 314 394 q 232 450 256 422 q 197 508 207 478 q 188 576 186 538 q 194 647 190 613 q 203 718 199 682 q 210 789 206 754 q 218 860 214 824 l 278 860 q 265 735 271 797 q 251 610 258 672 q 276 493 244 542 q 381 444 308 444 q 497 493 453 444 q 547 610 540 542 q 560 735 554 672 q 574 860 567 797 l 632 860 q 624 789 628 824 q 617 718 619 754 z "},"T":{"ha":599,"x_min":111,"x_max":661,"o":"m 661 949 l 636 711 l 492 711 l 418 0 l 182 0 l 256 711 l 111 711 l 136 949 l 661 949 l 661 949 m 585 771 l 597 889 l 189 889 l 176 771 l 321 771 l 246 60 l 365 60 l 440 771 l 585 771 l 585 771 m 564 860 l 557 800 l 414 800 l 339 89 l 279 89 l 354 800 l 210 800 l 217 860 l 564 860 l 564 860 z "},"W":{"ha":1029,"x_min":63,"x_max":1089,"o":"m 429 317 l 446 475 l 460 604 q 461 617 461 608 l 465 653 l 496 950 l 733 950 l 703 653 l 696 594 l 696 593 l 683 475 l 667 317 q 673 263 664 286 q 718 239 682 239 q 768 263 754 239 q 785 317 782 286 l 797 429 q 807 523 803 476 q 817 617 811 569 q 819 635 818 626 q 821 653 819 644 l 851 950 l 1089 950 q 1056 623 1072 786 q 1021 296 1039 460 q 987 184 1014 235 q 919 95 960 133 q 828 33 878 57 q 724 3 778 8 q 618 11 671 -3 q 521 61 565 25 q 358 2 442 7 q 208 33 275 -3 q 102 136 142 68 q 72 296 63 204 q 106 623 88 460 q 140 950 124 786 l 378 950 l 347 653 q 344 623 344 638 q 340 593 343 608 q 332 511 336 553 q 324 429 328 469 l 311 317 q 317 263 308 286 q 363 239 326 239 q 413 263 399 239 q 429 317 426 286 m 963 310 q 993 600 978 456 q 1024 890 1008 744 l 906 890 l 881 653 l 876 617 q 864 500 869 558 q 851 382 858 442 q 849 353 850 371 q 844 316 847 335 q 838 279 842 297 q 826 249 833 261 q 778 198 808 217 q 711 179 747 179 q 649 198 676 179 q 611 249 622 217 q 606 279 607 261 q 607 316 606 297 q 610 353 608 335 q 614 382 613 371 q 626 488 621 435 q 636 594 631 542 q 640 624 639 610 q 643 653 640 638 l 668 890 l 550 890 l 525 653 l 521 617 q 508 500 514 558 q 496 382 503 442 q 493 353 494 371 q 489 316 492 335 q 482 279 486 297 q 471 249 478 261 q 422 198 453 217 q 356 179 392 179 q 294 198 321 179 q 256 249 267 217 q 251 279 251 261 q 251 316 250 297 q 255 353 253 335 q 258 382 257 371 q 270 488 265 435 q 281 593 275 540 l 288 653 l 313 890 l 194 890 q 164 600 179 744 q 133 310 149 456 q 155 172 125 233 q 254 79 185 110 q 323 61 289 64 q 396 67 357 58 q 465 94 433 75 q 529 135 497 113 q 584 94 557 113 q 649 67 611 75 q 720 61 686 58 q 792 79 754 64 q 912 172 869 110 q 963 310 954 233 m 992 861 q 963 588 976 724 q 933 317 949 453 q 888 186 926 243 q 774 103 849 129 q 699 89 732 88 q 638 101 667 90 q 585 131 610 113 q 533 172 560 150 q 472 131 501 150 q 413 101 443 113 q 349 89 382 90 q 276 103 315 88 q 181 186 207 129 q 163 317 156 243 q 192 588 178 453 q 221 861 206 724 l 281 861 l 258 653 l 251 593 q 240 476 244 535 q 228 360 235 418 q 220 288 224 322 q 236 217 217 253 q 285 167 254 185 q 353 150 315 150 q 426 167 392 150 q 485 217 461 185 q 515 288 511 253 q 524 360 519 322 q 537 488 531 424 q 550 617 543 551 q 552 635 551 626 q 554 653 553 644 l 576 861 l 636 861 l 614 653 q 610 624 611 638 q 607 594 610 610 q 595 476 600 535 q 583 360 590 418 q 576 288 579 322 q 592 217 572 253 q 640 167 610 185 q 708 150 671 150 q 781 167 746 150 q 840 217 817 185 q 871 288 867 253 q 879 360 875 322 q 892 488 886 424 q 906 617 899 551 l 910 653 l 932 861 l 992 861 z "},"J":{"ha":668,"x_min":51,"x_max":721,"o":"m 679 553 q 669 454 674 504 q 658 356 664 404 q 644 257 653 304 q 607 163 636 210 q 505 54 564 93 q 382 4 446 15 q 257 8 318 -7 q 149 62 196 24 q 77 160 103 100 q 60 297 51 219 l 64 297 l 297 297 q 314 251 294 269 q 363 239 333 232 q 388 249 378 242 q 407 271 399 256 q 415 294 414 282 q 418 319 415 307 q 428 424 424 372 q 440 529 433 476 q 462 739 451 635 q 483 949 472 843 l 721 949 l 679 553 m 585 251 q 590 283 586 258 q 597 341 593 308 q 605 411 601 374 q 612 481 608 449 q 618 538 615 514 q 622 569 621 563 q 639 730 631 650 q 656 889 647 810 l 538 889 q 513 664 525 776 q 490 438 501 551 l 478 325 q 469 269 475 296 q 438 219 463 243 q 388 186 415 196 q 333 178 360 176 q 283 196 306 181 q 247 238 260 211 l 119 238 q 163 136 129 176 q 241 77 196 96 q 338 60 286 58 q 439 83 390 61 q 527 147 488 106 q 585 251 567 189 m 624 860 q 594 578 608 718 q 564 299 579 439 q 531 201 558 243 q 465 132 504 158 q 381 95 426 106 q 292 93 335 85 q 213 130 249 101 q 160 208 178 158 l 228 208 q 268 169 244 183 q 320 150 292 154 q 378 153 349 146 q 433 178 407 160 q 477 221 461 197 q 500 276 493 244 q 509 335 507 306 q 514 393 511 364 l 564 860 l 624 860 z "},"K":{"ha":668,"x_min":51,"x_max":743,"o":"m 743 947 l 457 474 l 644 0 l 379 0 l 307 182 l 289 0 l 51 0 l 75 236 l 150 947 l 328 947 l 388 947 l 368 764 l 478 947 l 743 947 l 743 947 m 392 474 l 642 889 l 510 889 l 282 513 l 322 889 l 204 889 l 117 58 l 235 58 l 274 435 l 422 58 l 554 58 l 392 474 l 392 474 m 589 858 l 358 474 l 508 89 l 443 89 l 292 474 l 524 858 l 589 858 l 589 858 m 256 536 l 208 89 l 149 89 l 229 858 l 289 858 l 258 561 l 256 536 l 256 536 z "},"V":{"ha":640,"x_min":122,"x_max":714,"o":"m 714 949 l 467 0 l 172 0 l 122 949 l 361 949 l 381 592 l 475 949 l 714 949 l 714 949 m 421 60 l 639 889 l 519 889 l 340 211 l 306 889 l 186 889 l 229 60 l 421 60 l 421 60 m 601 860 l 399 89 l 339 89 l 317 89 l 257 89 l 218 860 l 278 860 l 314 165 l 358 165 l 542 860 l 601 860 l 601 860 z "},"Z":{"ha":706,"x_min":38,"x_max":757,"o":"m 682 236 l 658 0 l 38 0 l 61 236 l 61 236 l 443 711 l 111 711 l 136 947 l 757 947 l 732 711 l 351 236 l 682 236 l 682 236 m 606 58 l 618 178 l 232 178 l 676 729 l 693 889 l 190 889 l 178 769 l 564 769 l 119 217 l 103 58 l 606 58 l 606 58 m 585 147 l 578 89 l 135 89 l 147 207 l 624 800 l 210 800 l 215 858 l 658 858 l 646 739 l 172 147 l 585 147 l 585 147 z "},"X":{"ha":668,"x_min":17,"x_max":749,"o":"m 749 949 l 510 474 l 650 0 l 396 0 l 349 154 l 272 0 l 17 0 l 254 474 l 115 949 l 371 949 l 417 793 l 494 949 l 749 949 l 749 949 m 446 474 l 656 889 l 528 889 l 399 633 l 325 889 l 197 889 l 318 474 l 110 60 l 238 60 l 365 314 l 440 60 l 568 60 l 446 474 l 446 474 m 610 860 l 414 474 l 528 89 l 464 89 l 374 394 l 219 89 l 156 89 l 350 474 l 238 860 l 301 860 l 390 554 l 546 860 l 610 860 l 610 860 z "},"!":{"ha":314,"x_min":49,"x_max":374,"o":"m 374 949 l 306 297 l 69 297 l 138 949 l 374 949 m 253 356 l 310 889 l 190 889 l 133 356 l 253 356 m 181 238 q 260 203 229 238 q 288 119 292 168 q 273 73 285 94 q 244 35 261 51 q 204 9 226 18 q 157 0 182 0 q 112 9 132 0 q 77 35 92 18 q 56 73 63 51 q 51 119 49 94 q 65 166 53 144 q 94 203 76 188 q 133 228 111 219 q 181 238 156 238 m 229 119 q 216 160 232 143 q 175 178 200 178 q 131 160 150 178 q 110 119 113 143 q 122 77 107 94 q 163 60 138 60 q 207 77 188 60 q 229 119 226 94 m 276 860 l 226 385 l 168 385 l 218 860 l 276 860 m 172 149 q 192 140 185 149 q 199 119 200 131 q 187 98 196 107 q 165 89 178 89 q 145 98 153 89 q 140 119 138 107 q 151 140 142 131 q 172 149 160 149 z "},"?":{"ha":668,"x_min":106,"x_max":708,"o":"m 582 774 q 610 675 610 729 q 585 571 611 621 q 550 522 569 542 q 508 487 531 501 q 461 461 486 472 q 410 439 436 450 l 404 386 l 344 386 q 348 432 347 410 q 354 478 349 454 q 366 499 357 493 q 390 504 375 504 q 435 513 411 504 q 513 567 482 528 q 550 653 544 606 q 529 742 556 706 q 463 793 503 779 q 376 795 422 807 q 293 742 329 783 l 224 742 q 303 824 254 794 q 403 859 351 854 q 504 842 456 864 q 582 774 553 821 m 590 900 q 683 778 658 851 q 694 628 708 704 q 628 483 679 551 q 492 381 576 415 l 483 297 l 246 297 q 254 377 250 338 q 263 457 258 417 q 287 535 267 501 q 353 585 307 569 q 392 591 372 592 q 432 604 413 590 q 458 637 450 617 q 458 676 465 657 q 432 706 450 699 q 395 710 414 714 q 361 691 376 706 q 343 653 346 676 l 106 653 q 166 808 115 740 q 288 913 217 876 q 440 949 360 949 q 590 900 521 949 m 624 589 q 638 713 647 651 q 588 819 628 775 q 483 883 543 868 q 364 881 424 897 q 253 822 304 865 q 178 711 203 778 l 304 711 q 383 767 338 758 q 464 758 428 776 q 517 701 500 740 q 508 610 533 661 q 481 572 496 586 q 443 546 467 557 q 399 535 418 535 q 377 532 388 533 q 356 524 367 531 q 327 488 331 508 q 321 444 324 468 q 316 400 318 422 q 311 356 314 378 l 429 356 l 436 419 q 497 448 469 433 q 549 482 525 463 q 591 527 572 501 q 624 589 610 553 m 357 238 q 438 203 406 238 q 465 119 469 168 q 451 73 463 94 q 421 35 439 51 q 381 9 403 18 q 333 0 358 0 q 288 9 308 0 q 253 35 268 18 q 232 73 239 51 q 228 119 225 94 q 241 166 229 144 q 270 203 253 188 q 310 228 288 219 q 357 238 332 238 m 406 119 q 392 160 408 143 q 351 178 376 178 q 309 160 328 178 q 288 119 290 143 q 300 77 285 94 q 339 60 315 60 q 383 77 364 60 q 406 119 403 94 m 349 149 q 369 140 361 149 q 376 119 378 131 q 364 98 374 107 q 342 89 354 89 q 322 98 331 89 q 317 119 314 107 q 328 140 318 131 q 349 149 338 149 z "},"N":{"ha":668,"x_min":40,"x_max":701,"o":"m 663 825 q 690 760 682 793 q 700 694 699 728 q 699 627 701 661 q 692 558 696 593 l 633 0 l 396 0 l 426 296 q 429 326 428 311 q 432 356 431 340 q 442 438 438 397 q 450 521 446 479 q 456 576 453 549 q 461 632 458 604 q 455 688 464 664 q 410 711 446 711 q 360 688 374 711 q 343 632 346 664 q 338 576 340 604 q 332 521 335 549 q 322 426 326 474 q 313 332 317 379 q 310 315 311 324 q 308 296 310 306 l 278 0 l 40 0 l 99 558 q 106 628 103 593 q 118 696 110 663 q 142 761 126 729 q 183 825 157 793 q 298 915 232 883 q 435 947 364 947 q 567 915 507 947 q 663 825 626 883 m 629 542 q 638 601 633 572 q 642 660 642 631 q 638 718 643 689 q 619 776 633 747 q 542 859 592 829 q 429 889 492 889 q 310 859 367 889 q 215 776 254 829 q 184 718 194 747 q 168 660 174 689 q 161 601 163 631 q 156 542 160 572 q 131 300 143 419 q 106 60 118 181 l 224 60 l 249 296 l 253 332 q 265 450 260 392 q 276 567 269 508 q 279 597 278 579 q 283 634 281 615 q 291 671 286 653 q 303 701 296 689 q 351 751 321 733 q 417 769 382 769 q 479 751 453 769 q 517 700 506 732 q 522 671 521 689 q 521 634 522 653 q 517 597 519 615 q 514 567 515 579 q 503 461 508 514 q 492 356 499 408 l 486 296 l 461 60 l 579 60 q 604 300 592 181 q 629 542 617 419 m 596 750 q 610 699 607 726 q 611 642 613 671 q 606 585 610 613 q 600 533 603 557 q 576 311 589 421 q 553 89 564 201 l 493 89 l 515 296 l 521 356 q 533 473 528 414 q 546 590 539 532 q 553 663 550 628 q 538 732 557 697 q 488 782 519 764 q 419 800 457 800 q 347 782 382 800 q 289 732 313 764 q 268 697 275 715 q 258 662 261 679 q 253 626 254 644 q 250 590 251 608 q 237 461 243 525 q 224 332 231 397 l 219 296 l 197 89 l 138 89 q 161 310 149 200 q 185 533 174 421 q 190 585 188 557 q 197 642 192 613 q 209 699 201 671 q 232 751 217 728 q 317 830 265 801 q 425 858 368 858 q 528 829 483 858 q 596 750 574 800 z "},"Q":{"ha":668,"x_min":68,"x_max":703,"o":"m 699 668 q 692 595 696 632 q 683 522 688 558 q 676 450 679 486 q 668 378 672 414 q 660 305 664 340 q 646 235 656 269 q 618 169 636 201 q 569 104 600 136 l 622 -60 l 365 -60 l 347 0 q 333 -1 342 -1 q 203 31 263 -1 q 108 119 144 63 q 78 187 88 153 q 69 256 69 221 q 72 326 68 290 q 81 399 76 361 q 83 428 81 406 q 89 480 86 450 q 95 543 92 510 q 102 606 99 576 q 109 659 106 636 q 114 689 113 682 q 180 822 131 763 q 300 914 229 882 q 448 944 375 949 q 578 905 521 940 q 669 808 635 869 q 699 668 703 747 m 607 351 q 621 481 614 417 q 635 611 628 546 q 638 678 639 646 q 631 738 638 710 q 607 791 624 765 q 561 840 590 817 q 447 885 513 879 q 319 861 382 890 q 215 774 256 831 q 165 651 174 718 q 151 521 158 585 q 138 392 144 457 q 130 326 133 358 q 127 264 126 294 q 136 203 128 233 q 165 144 144 174 q 212 97 188 114 q 265 70 236 79 q 324 60 293 61 q 392 60 356 58 l 410 -1 l 539 -1 l 501 114 q 553 173 535 147 q 583 224 572 199 q 598 278 593 249 q 607 351 603 308 m 553 806 q 591 756 579 782 q 607 703 603 731 q 608 645 611 675 q 603 583 606 615 q 590 460 596 521 q 576 339 583 400 q 566 268 572 296 q 549 218 560 240 q 519 174 538 196 q 469 119 500 151 l 499 29 l 433 29 l 413 90 q 351 89 381 89 q 294 94 321 89 q 242 115 267 100 q 196 157 218 129 q 167 212 175 183 q 158 269 158 240 q 161 327 157 297 q 168 388 165 357 q 181 510 175 450 q 193 632 186 571 q 231 750 200 699 q 328 833 263 801 q 449 855 388 863 q 553 806 510 847 m 497 242 q 508 283 503 254 q 518 343 514 311 q 524 403 522 375 q 528 444 526 432 q 538 547 533 496 q 550 649 543 597 q 524 747 556 710 q 444 794 492 785 q 348 782 397 804 q 271 703 299 760 q 258 661 264 690 q 249 601 253 632 q 242 541 244 569 q 238 500 239 513 q 227 397 232 447 q 217 294 222 346 q 226 224 213 254 q 265 174 240 193 q 322 149 289 156 q 387 151 354 143 q 449 181 419 158 q 497 242 478 204 m 501 468 q 493 377 496 422 q 482 286 490 332 q 454 224 475 249 q 406 187 433 199 q 348 176 378 175 q 294 192 318 178 q 257 231 271 206 q 247 294 243 257 q 256 385 251 340 q 267 476 261 431 q 274 567 271 521 q 285 657 278 613 q 313 719 292 694 q 362 756 335 744 q 419 767 389 768 q 472 753 449 767 q 510 713 496 739 q 521 649 525 688 q 510 558 515 604 q 501 468 506 513 m 399 250 q 419 279 417 264 q 425 313 422 294 q 429 346 428 329 q 432 379 431 363 q 447 515 439 447 q 461 649 454 582 q 454 682 463 668 q 431 703 446 696 q 400 708 417 710 q 368 694 383 707 q 347 665 351 681 q 340 632 343 650 q 338 599 339 615 q 333 565 336 582 q 319 430 326 497 q 306 294 313 363 q 312 261 303 275 q 335 241 321 247 q 366 236 349 235 q 399 250 383 238 z "},".":{"ha":296,"x_min":38,"x_max":281,"o":"m 169 238 q 249 203 218 238 q 276 119 281 168 q 262 73 274 94 q 233 35 250 51 q 193 9 215 18 q 146 0 171 0 q 101 9 121 0 q 66 35 81 18 q 44 73 51 51 q 40 119 38 94 q 53 166 42 144 q 83 203 65 188 q 122 228 100 219 q 169 238 144 238 m 217 119 q 203 160 219 143 q 164 178 188 178 q 120 160 139 178 q 99 119 101 143 q 111 77 96 94 q 151 60 126 60 q 194 77 175 60 q 217 119 214 94 m 161 149 q 181 140 172 149 q 188 119 189 131 q 175 98 185 107 q 154 89 165 89 q 134 98 142 89 q 129 119 126 107 q 140 140 131 131 q 161 149 149 149 z "},":":{"ha":296,"x_min":38,"x_max":354,"o":"m 169 238 q 249 203 218 238 q 276 119 281 168 q 262 73 274 94 q 233 35 250 51 q 193 9 215 18 q 146 0 171 0 q 101 9 121 0 q 66 35 81 18 q 44 73 51 51 q 40 119 38 94 q 53 166 42 144 q 83 203 65 188 q 122 228 100 219 q 169 238 144 238 m 217 119 q 203 160 219 143 q 164 178 188 178 q 120 160 139 178 q 99 119 101 143 q 111 77 96 94 q 151 60 126 60 q 194 77 175 60 q 217 119 214 94 m 161 149 q 181 140 172 149 q 188 119 189 131 q 175 98 185 107 q 154 89 165 89 q 134 98 142 89 q 129 119 126 107 q 140 140 131 131 q 161 149 149 149 m 243 938 q 323 903 292 938 q 350 819 354 868 q 335 773 347 794 q 306 735 324 751 q 265 709 288 718 q 218 700 243 700 q 173 709 193 700 q 138 735 153 718 q 117 773 124 751 q 114 819 111 794 q 127 866 115 844 q 156 903 139 888 q 196 928 174 919 q 243 938 218 938 m 290 819 q 277 860 293 843 q 238 878 261 878 q 194 860 213 878 q 172 819 175 843 q 185 777 169 794 q 225 760 200 760 q 268 777 249 760 q 290 819 288 794 m 235 849 q 254 840 246 849 q 261 819 263 831 q 249 798 258 807 q 228 789 239 789 q 208 798 215 789 q 203 819 200 807 q 213 840 204 831 q 235 849 222 849 z "},";":{"ha":296,"x_min":33,"x_max":354,"o":"m 243 938 q 323 903 292 938 q 350 819 354 868 q 335 773 347 794 q 306 735 324 751 q 265 709 288 718 q 218 700 243 700 q 173 709 193 700 q 138 735 153 718 q 117 773 124 751 q 114 819 111 794 q 127 866 115 844 q 156 903 139 888 q 196 928 174 919 q 243 938 218 938 m 290 819 q 277 860 293 843 q 238 878 261 878 q 194 860 213 878 q 172 819 175 843 q 185 777 169 794 q 225 760 200 760 q 268 777 249 760 q 290 819 288 794 m 235 849 q 254 840 246 849 q 261 819 263 831 q 249 798 258 807 q 228 789 239 789 q 208 798 215 789 q 203 819 200 807 q 213 840 204 831 q 235 849 222 849 m 276 126 q 278 123 276 125 q 278 121 281 121 q 224 -29 268 36 q 110 -146 179 -94 q 79 -150 94 -157 q 65 -125 64 -143 q 66 -94 67 -110 q 64 -62 65 -78 q 56 -33 61 -47 q 46 -3 50 -18 q 36 58 39 28 q 40 121 33 88 q 84 204 46 169 q 172 239 122 239 q 251 204 221 239 q 272 167 265 188 q 275 155 274 160 q 276 143 276 150 q 277 138 276 140 q 276 132 278 135 l 276 126 m 124 -61 q 189 22 165 -21 q 218 121 213 64 q 204 163 221 146 q 163 181 188 181 q 119 161 136 179 q 99 118 101 143 l 99 115 q 96 94 96 101 l 96 81 q 97 60 97 69 q 100 40 97 50 q 117 -24 106 8 q 119 -33 118 -28 q 121 -42 121 -37 q 122 -51 122 -47 q 124 -61 122 -56 m 189 121 q 142 1 181 57 q 126 63 131 33 q 126 76 126 69 q 125 90 126 83 q 126 101 126 96 q 128 111 125 106 l 128 117 q 137 140 131 132 q 160 150 143 149 q 181 143 172 151 q 189 121 190 135 z "},",":{"ha":294,"x_min":33,"x_max":281,"o":"m 276 126 q 278 123 276 125 q 278 121 281 121 q 224 -29 268 36 q 110 -146 179 -94 q 79 -150 94 -157 q 65 -125 64 -143 q 66 -94 67 -110 q 64 -62 65 -78 q 56 -33 61 -47 q 46 -3 50 -18 q 36 58 39 28 q 40 121 33 88 q 84 204 46 169 q 172 239 122 239 q 251 204 221 239 q 272 167 265 188 q 275 155 274 160 q 276 143 276 150 q 277 138 276 140 q 276 132 278 135 l 276 126 m 124 -61 q 189 22 165 -21 q 218 121 213 64 q 204 163 221 146 q 163 181 188 181 q 119 161 136 179 q 99 118 101 143 l 99 115 q 96 94 96 101 l 96 81 q 97 60 97 69 q 100 40 97 50 q 117 -24 106 8 q 119 -33 118 -28 q 121 -42 121 -37 q 122 -51 122 -47 q 124 -61 122 -56 m 189 121 q 142 1 181 57 q 126 63 131 33 q 126 76 126 69 q 125 90 126 83 q 126 101 126 96 q 128 111 125 106 l 128 117 q 137 140 131 132 q 160 150 143 149 q 181 143 172 151 q 189 121 190 135 z "},"a":{"ha":668,"x_min":38,"x_max":699,"o":"m 667 356 l 631 0 l 393 0 l 417 236 l 299 236 l 275 0 l 38 0 q 61 235 49 118 q 86 469 74 351 q 91 517 88 483 q 99 587 94 550 q 108 657 103 624 q 117 704 113 690 q 170 813 133 763 q 260 896 207 863 q 374 942 314 931 q 488 942 433 953 q 590 899 543 931 q 665 815 636 867 q 688 760 681 788 q 697 706 696 733 q 697 649 699 678 q 692 590 694 621 l 683 503 l 667 356 m 626 542 q 635 601 631 572 q 640 660 639 631 q 635 718 640 689 q 617 776 631 747 q 540 859 590 829 q 428 889 490 889 q 308 859 365 889 q 213 776 251 829 q 181 718 192 747 q 165 660 171 689 q 158 601 160 631 q 153 542 157 572 l 103 58 l 221 58 l 246 296 l 483 296 l 458 58 l 576 58 l 626 542 m 594 751 q 607 699 604 728 q 608 642 610 671 q 603 585 607 613 q 597 533 600 557 q 574 310 586 421 q 550 89 561 200 l 490 89 l 515 325 l 219 325 l 194 89 l 135 89 q 158 311 146 201 q 182 533 171 421 q 187 585 185 557 q 194 642 189 613 q 206 699 199 671 q 229 750 214 726 q 314 830 263 801 q 424 858 365 858 q 526 830 481 858 q 594 751 571 801 m 522 385 q 535 510 529 447 q 549 635 542 572 q 545 698 551 668 q 522 751 539 728 q 480 787 506 774 q 418 800 454 800 q 353 787 382 800 q 302 751 324 774 q 268 698 281 728 q 253 635 256 668 q 240 510 246 572 q 226 385 233 447 l 522 385 m 518 626 q 507 520 513 574 q 496 414 501 467 l 258 414 q 269 520 264 467 q 281 626 275 574 q 290 678 283 654 q 317 726 296 703 q 361 760 339 750 q 415 769 383 769 q 501 726 472 769 q 519 678 518 703 q 518 626 521 654 m 457 610 q 462 642 458 626 q 458 676 465 658 q 408 711 447 711 q 375 703 388 711 q 351 676 363 696 q 340 642 340 658 q 339 610 340 626 q 331 542 335 575 q 324 474 328 508 l 442 474 q 449 542 446 508 q 457 610 453 575 z "},"b":{"ha":668,"x_min":43,"x_max":708,"o":"m 221 0 l 43 0 l 142 949 l 319 949 q 417 949 369 949 q 507 939 464 949 q 588 906 550 929 q 660 835 626 882 q 697 749 686 794 q 703 655 708 703 q 679 560 699 607 q 625 474 660 514 q 661 387 651 433 q 665 293 671 340 q 639 199 660 246 q 583 114 618 153 q 497 42 540 65 q 410 9 454 18 q 318 0 365 0 q 221 0 271 0 m 640 626 q 644 713 651 675 q 614 789 638 750 q 553 856 586 835 q 481 884 519 876 q 401 890 443 892 q 314 889 358 889 l 196 889 l 108 60 l 226 60 q 313 58 271 60 q 395 64 356 57 q 472 92 435 71 q 547 158 510 114 q 594 235 579 197 q 608 321 608 274 q 592 403 608 368 q 551 474 575 439 q 606 544 582 510 q 640 626 629 579 m 311 860 q 391 862 351 860 q 471 854 431 864 q 542 825 514 846 q 592 767 569 804 q 616 693 613 729 q 607 613 619 657 q 568 538 594 569 q 514 474 542 506 q 554 410 535 442 q 578 335 574 379 q 569 254 581 290 q 529 182 558 218 q 468 124 500 144 q 392 93 436 103 q 310 87 350 85 q 229 89 269 89 l 140 89 l 222 860 l 311 860 m 433 510 q 516 563 482 524 q 556 651 550 603 q 535 740 561 701 q 464 794 510 779 q 426 799 453 797 q 369 800 399 800 q 312 800 339 800 q 275 800 285 800 l 244 504 q 281 504 254 504 q 338 504 307 504 q 395 506 368 504 q 433 510 422 507 m 396 154 q 479 208 446 168 q 518 296 513 247 q 498 385 524 346 q 426 439 472 424 q 388 443 415 442 q 331 444 361 444 q 274 444 301 444 q 238 444 247 444 l 207 149 q 244 149 217 149 q 301 149 271 149 q 358 150 331 149 q 396 154 385 151 m 525 651 q 494 580 521 611 q 428 538 468 549 q 398 534 419 535 q 352 533 376 533 q 306 533 328 533 q 276 533 285 533 l 301 771 q 331 771 310 771 q 377 771 353 771 q 422 769 401 771 q 451 765 443 768 q 509 723 489 754 q 525 651 529 692 m 467 651 q 459 687 469 671 q 429 708 449 703 q 392 713 411 715 q 354 711 374 711 l 342 593 q 379 591 361 593 q 417 594 397 589 q 450 617 436 601 q 467 651 464 632 m 488 296 q 457 226 483 257 q 390 183 431 194 q 360 179 382 181 q 315 178 339 178 q 269 178 290 178 q 239 178 247 178 l 264 415 q 294 415 272 415 q 340 415 315 415 q 385 414 364 415 q 415 410 407 413 q 472 367 451 399 q 488 296 492 336 m 429 296 q 416 338 432 321 q 375 356 400 356 l 317 356 l 304 238 l 363 238 q 407 255 388 238 q 429 296 426 272 z "},"c":{"ha":668,"x_min":69,"x_max":710,"o":"m 701 654 l 464 654 q 452 695 467 678 q 414 714 438 713 q 370 698 390 714 q 346 658 350 682 q 335 567 339 613 q 328 476 332 522 q 316 385 322 431 q 308 294 310 340 q 324 251 307 265 q 363 237 342 236 q 404 253 385 238 q 426 299 424 269 l 660 299 l 664 299 q 616 162 656 224 q 518 60 576 100 q 390 7 460 21 q 250 15 319 -7 q 139 85 185 36 q 78 201 93 135 q 70 268 69 235 q 75 336 71 301 q 83 406 79 372 q 90 476 86 440 q 97 546 93 511 q 104 615 101 581 q 114 685 108 651 q 135 751 119 718 q 220 867 165 818 q 346 938 275 917 q 488 946 419 960 q 606 892 556 932 q 683 791 656 853 q 701 654 710 729 m 514 714 l 642 714 q 601 810 633 769 q 522 871 568 850 q 422 891 476 892 q 313 863 367 890 q 225 790 261 835 q 175 692 189 746 q 169 651 172 682 q 161 584 165 619 q 154 517 157 549 q 150 476 151 486 q 145 435 149 467 q 138 369 142 404 q 132 302 135 333 q 129 261 129 271 q 159 163 132 207 q 231 90 186 118 q 334 61 279 63 q 439 81 389 60 q 530 142 489 101 q 592 239 571 183 l 464 239 q 415 195 444 210 q 357 180 386 181 q 301 193 328 179 q 260 236 275 207 q 248 294 244 265 q 254 354 251 324 q 261 416 257 386 q 268 476 265 446 q 274 538 271 507 q 281 599 278 568 q 286 658 283 629 q 311 717 289 688 q 361 760 332 746 q 419 773 390 774 q 474 758 449 772 q 514 714 500 743 m 601 743 l 533 743 q 484 788 514 772 q 421 803 454 803 q 354 788 388 803 q 296 744 321 774 q 263 681 269 713 q 253 614 256 649 q 245 545 249 579 q 239 476 242 511 q 231 408 235 442 q 224 340 228 374 q 220 273 221 304 q 239 210 219 242 q 288 165 258 181 q 351 150 318 150 q 418 165 385 150 q 476 210 451 181 l 544 210 q 480 137 519 165 q 395 98 440 108 q 306 96 350 88 q 225 133 261 104 q 173 203 189 161 q 160 292 157 244 q 168 385 163 339 q 179 476 174 431 q 188 568 183 522 q 199 661 192 614 q 231 750 206 708 q 297 819 257 792 q 386 858 339 849 q 476 856 433 867 q 551 817 518 846 q 601 743 585 788 z "},"d":{"ha":668,"x_min":38,"x_max":703,"o":"m 697 651 l 660 296 q 624 181 653 235 q 551 86 596 126 q 451 23 507 46 q 333 0 394 0 l 274 0 l 215 0 l 38 0 l 136 947 l 314 947 l 372 947 l 432 947 q 544 924 493 947 q 632 861 596 901 q 685 767 668 821 q 697 651 703 713 m 600 296 l 638 651 q 629 743 643 700 q 586 818 615 786 q 516 869 557 850 q 426 888 475 888 l 367 888 l 308 888 l 189 888 l 101 58 l 279 58 l 339 58 q 433 77 388 58 q 513 128 478 96 q 572 203 549 160 q 600 296 594 247 m 608 651 l 571 296 q 546 215 567 253 q 494 149 525 178 q 424 105 463 121 q 342 89 385 89 l 311 89 l 282 89 l 135 89 l 215 858 l 304 858 l 363 858 l 422 858 q 501 842 465 858 q 563 797 538 825 q 600 732 588 769 q 608 651 613 694 m 511 296 l 549 651 q 543 709 551 682 q 517 756 535 736 q 473 787 499 775 q 417 799 447 799 l 268 799 l 258 710 l 221 356 l 200 147 l 349 147 q 408 159 379 147 q 458 191 436 171 q 494 238 479 211 q 511 296 508 265 m 519 651 l 482 296 q 467 249 479 271 q 438 212 456 228 q 399 187 421 196 q 351 178 376 178 l 233 178 l 251 356 l 289 710 l 296 769 l 414 769 q 459 760 439 769 q 494 735 479 751 q 515 698 508 719 q 519 651 522 676 m 424 293 q 432 369 429 332 q 439 443 435 406 q 447 519 443 482 q 454 594 451 557 q 460 630 457 613 q 460 665 463 647 l 460 668 l 460 669 q 458 671 458 669 l 458 672 q 458 675 457 674 q 457 676 458 676 l 457 679 q 456 681 456 681 q 454 683 456 682 l 453 685 l 451 686 q 451 688 451 688 q 449 692 450 690 q 446 693 447 693 q 444 696 446 694 q 442 699 444 696 q 439 701 439 700 q 436 703 439 701 q 434 703 435 703 q 432 704 433 704 q 430 706 431 706 q 428 707 429 706 q 425 708 426 707 q 421 708 424 708 q 385 712 403 714 q 347 710 367 710 l 335 592 l 297 236 q 335 235 317 236 q 374 239 354 233 q 407 259 393 244 q 424 293 421 274 z "},"e":{"ha":668,"x_min":40,"x_max":731,"o":"m 656 236 l 632 0 l 276 0 l 218 0 l 40 0 l 139 947 l 317 947 l 375 947 l 731 947 l 706 710 l 350 710 l 338 592 l 693 592 l 668 354 l 313 354 l 300 236 l 656 236 l 656 236 m 579 58 l 592 178 l 236 178 l 261 414 l 617 414 l 629 532 l 274 532 l 299 769 l 654 769 l 667 888 l 369 888 l 311 888 l 192 888 l 104 58 l 224 58 l 282 58 l 579 58 l 579 58 m 558 147 l 551 89 l 285 89 l 226 89 l 138 89 l 218 858 l 307 858 l 365 858 l 632 858 l 626 799 l 272 799 l 242 503 l 596 503 l 589 443 l 235 443 l 204 147 l 558 147 l 558 147 z "},"f":{"ha":668,"x_min":42,"x_max":733,"o":"m 696 593 l 671 356 l 315 356 l 279 0 l 219 0 l 42 0 l 140 949 l 318 949 l 378 949 l 733 949 l 708 711 l 353 711 l 340 593 l 696 593 l 696 593 m 618 415 l 631 533 l 275 533 l 300 771 l 656 771 l 668 889 l 372 889 l 313 889 l 194 889 l 107 60 l 225 60 l 263 415 l 618 415 l 618 415 m 599 504 l 592 444 l 236 444 l 199 89 l 139 89 l 221 860 l 636 860 l 629 800 l 274 800 l 243 504 l 599 504 l 599 504 z "},"g":{"ha":668,"x_min":65,"x_max":706,"o":"m 660 299 q 612 162 651 224 q 514 60 572 100 q 385 8 456 21 q 247 17 315 -6 q 135 86 181 38 q 75 201 90 135 q 67 268 65 235 q 72 338 68 301 q 80 407 76 372 q 88 476 83 442 q 94 547 90 513 q 101 617 99 581 q 111 685 106 651 q 132 751 117 718 q 217 867 163 818 q 343 938 272 917 q 484 946 417 960 q 601 892 551 932 q 678 791 651 853 q 697 654 706 729 l 461 654 q 447 699 464 681 q 403 714 429 717 q 358 691 372 711 q 340 644 343 671 q 330 545 335 594 q 319 447 325 496 q 315 398 317 422 q 310 349 313 374 q 305 301 307 329 q 319 256 303 274 q 362 240 336 238 q 407 263 388 242 q 418 284 414 271 q 425 310 422 297 q 428 337 428 324 q 431 358 429 350 l 328 358 l 353 596 l 692 596 l 660 299 m 599 283 q 607 347 604 315 q 614 410 610 378 q 620 473 617 442 q 626 536 624 504 l 404 536 l 392 418 l 494 418 q 492 390 494 411 q 488 346 490 369 q 482 301 485 322 q 476 274 479 281 q 435 212 465 238 q 367 182 406 186 q 299 194 331 176 q 254 244 268 211 q 247 276 249 257 q 247 315 246 296 q 251 354 249 335 q 256 386 254 374 q 263 458 258 422 q 271 531 267 494 q 273 558 271 536 q 278 603 275 579 q 283 649 281 628 q 288 675 286 669 q 328 741 299 717 q 393 772 358 765 q 461 764 428 778 q 511 714 494 750 l 638 714 q 584 826 626 782 q 485 884 542 869 q 364 883 428 899 q 246 817 300 868 q 201 761 218 789 q 176 704 185 733 q 163 644 167 675 q 156 581 160 614 q 142 455 149 518 q 129 328 136 392 q 135 205 122 258 q 206 107 149 151 q 317 63 254 69 q 442 85 379 57 q 546 165 504 113 q 599 283 588 218 m 593 507 q 583 395 586 450 q 569 285 581 340 q 522 181 558 228 q 432 111 485 135 q 321 93 376 88 q 222 132 265 99 q 163 219 174 172 q 160 326 153 265 q 172 438 167 383 q 183 549 176 493 q 188 603 186 576 q 194 658 189 631 q 208 711 199 685 q 238 764 218 738 q 328 840 275 815 q 435 861 382 864 q 533 828 489 858 q 599 743 578 799 l 529 743 q 465 794 504 781 q 387 799 426 807 q 313 763 347 792 q 261 689 278 735 q 255 656 258 681 q 248 606 251 632 q 242 555 244 579 q 239 522 240 531 q 231 439 235 481 q 221 356 226 397 q 216 313 218 333 q 215 274 214 293 q 223 235 217 254 q 244 197 229 215 q 311 155 271 165 q 394 158 351 144 q 468 204 438 171 q 510 279 499 238 q 515 322 514 301 q 519 363 517 342 q 524 405 522 383 q 528 447 525 426 l 425 447 l 432 507 l 593 507 z "},"h":{"ha":668,"x_min":36,"x_max":726,"o":"m 664 356 l 628 0 l 392 0 l 428 356 l 310 356 l 274 0 l 36 0 l 72 356 l 97 592 l 135 947 l 372 947 l 335 592 l 453 592 l 490 947 l 726 947 l 689 592 l 664 356 l 664 356 m 575 58 l 663 889 l 543 889 l 506 533 l 269 533 l 307 889 l 189 889 l 101 58 l 219 58 l 257 414 l 493 414 l 456 58 l 575 58 l 575 58 m 629 858 l 549 89 l 489 89 l 526 444 l 231 444 l 193 89 l 133 89 l 214 858 l 274 858 l 238 503 l 533 503 l 569 858 l 629 858 l 629 858 z "},"i":{"ha":319,"x_min":42,"x_max":378,"o":"m 378 949 l 279 0 l 42 0 l 140 949 l 378 949 l 378 949 m 225 60 l 313 889 l 194 889 l 107 60 l 225 60 l 225 60 m 279 860 l 197 89 l 139 89 l 221 860 l 279 860 l 279 860 z "},"j":{"ha":668,"x_min":51,"x_max":721,"o":"m 679 553 q 669 454 674 504 q 658 356 664 404 q 644 257 653 304 q 607 163 636 210 q 505 54 564 93 q 382 4 446 15 q 257 8 318 -7 q 149 62 196 24 q 77 160 103 100 q 60 297 51 219 l 64 297 l 297 297 q 314 251 294 269 q 363 239 333 232 q 388 249 378 242 q 407 271 399 256 q 415 294 414 282 q 418 319 415 307 q 428 424 424 372 q 440 529 433 476 q 462 739 451 635 q 483 949 472 843 l 721 949 l 679 553 m 585 251 q 590 283 586 258 q 597 341 593 308 q 605 411 601 374 q 612 481 608 449 q 618 538 615 514 q 622 569 621 563 q 639 730 631 650 q 656 889 647 810 l 538 889 q 513 664 525 776 q 490 438 501 551 l 478 325 q 469 269 475 296 q 438 219 463 243 q 388 186 415 196 q 333 178 360 176 q 283 196 306 181 q 247 238 260 211 l 119 238 q 163 136 129 176 q 241 77 196 96 q 338 60 286 58 q 439 83 390 61 q 527 147 488 106 q 585 251 567 189 m 624 860 q 594 578 608 718 q 564 299 579 439 q 531 201 558 243 q 465 132 504 158 q 381 95 426 106 q 292 93 335 85 q 213 130 249 101 q 160 208 178 158 l 228 208 q 268 169 244 183 q 320 150 292 154 q 378 153 349 146 q 433 178 407 160 q 477 221 461 197 q 500 276 493 244 q 509 335 507 306 q 514 393 511 364 l 564 860 l 624 860 z "},"k":{"ha":668,"x_min":51,"x_max":743,"o":"m 743 947 l 457 474 l 644 0 l 379 0 l 307 182 l 289 0 l 51 0 l 75 236 l 150 947 l 328 947 l 388 947 l 368 764 l 478 947 l 743 947 l 743 947 m 392 474 l 642 889 l 510 889 l 282 513 l 322 889 l 204 889 l 117 58 l 235 58 l 274 435 l 422 58 l 554 58 l 392 474 l 392 474 m 589 858 l 358 474 l 508 89 l 443 89 l 292 474 l 524 858 l 589 858 l 589 858 m 256 536 l 208 89 l 149 89 l 229 858 l 289 858 l 258 561 l 256 536 l 256 536 z "},"l":{"ha":579,"x_min":46,"x_max":560,"o":"m 560 238 l 536 0 l 282 0 l 46 0 l 69 238 l 144 949 l 381 949 l 306 238 l 560 238 l 560 238 m 482 60 l 494 178 l 242 178 l 317 889 l 199 889 l 129 238 l 117 118 l 111 60 l 482 60 l 482 60 m 463 149 l 456 89 l 143 89 l 225 860 l 285 860 l 210 149 l 463 149 l 463 149 z "},"m":{"ha":1044,"x_min":47,"x_max":1068,"o":"m 468 632 q 462 688 471 664 q 417 711 453 711 q 366 688 381 711 q 349 633 351 664 q 343 577 346 606 q 338 521 340 549 q 327 427 332 474 q 318 332 322 381 q 316 315 317 324 q 314 296 315 306 l 283 0 l 47 0 q 81 327 64 164 q 115 654 97 490 q 149 766 122 715 q 217 855 176 817 q 308 917 257 893 q 411 947 358 942 q 517 939 464 953 q 614 889 569 925 q 722 939 667 925 q 828 947 776 953 q 926 917 881 942 q 1003 855 971 893 q 1052 766 1036 817 q 1063 654 1068 715 q 1029 327 1047 490 q 994 0 1011 164 l 758 0 l 789 296 q 792 326 790 311 q 794 356 793 340 q 804 438 800 397 q 813 521 808 479 q 818 576 815 549 q 824 632 821 604 q 817 688 826 664 q 772 711 808 711 q 722 688 736 711 q 704 633 707 664 l 688 474 l 675 346 q 674 332 674 342 l 669 296 l 639 0 l 403 0 l 433 296 l 439 356 l 451 474 l 468 632 m 942 60 q 972 349 957 206 q 1003 640 988 493 q 981 778 1011 717 q 881 871 950 840 q 813 889 846 886 q 739 883 779 892 q 669 856 701 875 q 606 814 638 838 q 551 856 578 838 q 486 883 524 875 q 415 889 449 892 q 343 871 381 886 q 224 778 267 840 q 174 640 182 717 q 143 349 158 493 q 113 60 128 206 l 231 60 l 256 296 l 260 332 q 272 450 267 392 q 283 567 276 508 q 286 597 285 579 q 290 634 288 615 q 297 671 293 653 q 308 701 301 689 q 358 751 326 733 q 424 769 389 769 q 487 751 460 769 q 525 701 514 733 q 529 671 529 689 q 528 634 529 653 q 524 597 526 615 q 519 567 521 579 q 509 461 514 514 q 497 356 504 408 q 494 326 496 340 q 492 296 493 311 l 467 60 l 586 60 l 611 296 l 615 332 q 627 450 622 392 q 639 567 632 508 q 642 597 640 579 q 646 634 643 615 q 653 671 649 653 q 664 701 657 689 q 713 751 682 733 q 779 769 744 769 q 842 751 814 769 q 881 701 869 733 q 885 671 885 689 q 883 634 885 653 q 879 597 882 615 q 875 567 876 579 q 865 461 869 514 q 853 356 860 408 l 847 296 l 822 60 l 942 60 m 971 633 q 943 361 957 496 q 914 89 929 226 l 856 89 l 878 296 l 883 356 q 896 474 890 415 q 908 590 901 532 q 915 663 913 628 q 899 732 918 697 q 851 782 882 764 q 782 800 819 800 q 710 783 744 800 q 651 733 675 765 q 631 698 638 715 q 620 663 624 681 q 615 626 617 644 q 611 590 613 608 q 598 461 604 525 q 585 332 592 397 q 583 315 583 324 q 581 296 582 306 l 558 89 l 500 89 l 522 296 q 525 326 524 311 q 528 356 526 340 q 540 473 535 414 q 553 590 546 532 q 560 663 557 628 q 543 732 563 697 q 495 782 526 764 q 426 800 464 800 q 354 783 389 800 q 296 733 319 765 q 275 698 282 715 q 265 663 268 681 q 259 626 261 644 q 256 590 257 608 q 242 461 249 525 q 229 332 236 397 l 225 296 l 203 89 l 144 89 q 174 361 160 226 q 201 633 188 496 q 248 763 210 706 q 361 847 286 821 q 436 860 403 861 q 497 849 469 860 q 550 819 525 838 q 601 778 575 800 q 663 819 633 800 q 722 849 692 838 q 786 860 753 860 q 858 847 819 861 q 953 763 928 821 q 971 633 979 706 z "},"n":{"ha":668,"x_min":40,"x_max":701,"o":"m 663 825 q 690 760 682 793 q 700 694 699 728 q 699 627 701 661 q 692 558 696 593 l 633 0 l 396 0 l 426 296 q 429 326 428 311 q 432 356 431 340 q 442 438 438 397 q 450 521 446 479 q 456 576 453 549 q 461 632 458 604 q 455 688 464 664 q 410 711 446 711 q 360 688 374 711 q 343 632 346 664 q 338 576 340 604 q 332 521 335 549 q 322 426 326 474 q 313 332 317 379 q 310 315 311 324 q 308 296 310 306 l 278 0 l 40 0 l 99 558 q 106 628 103 593 q 118 696 110 663 q 142 761 126 729 q 183 825 157 793 q 298 915 232 883 q 435 947 364 947 q 567 915 507 947 q 663 825 626 883 m 629 542 q 638 601 633 572 q 642 660 642 631 q 638 718 643 689 q 619 776 633 747 q 542 859 592 829 q 429 889 492 889 q 310 859 367 889 q 215 776 254 829 q 184 718 194 747 q 168 660 174 689 q 161 601 163 631 q 156 542 160 572 q 131 300 143 419 q 106 60 118 181 l 224 60 l 249 296 l 253 332 q 265 450 260 392 q 276 567 269 508 q 279 597 278 579 q 283 634 281 615 q 291 671 286 653 q 303 701 296 689 q 351 751 321 733 q 417 769 382 769 q 479 751 453 769 q 517 700 506 732 q 522 671 521 689 q 521 634 522 653 q 517 597 519 615 q 514 567 515 579 q 503 461 508 514 q 492 356 499 408 l 486 296 l 461 60 l 579 60 q 604 300 592 181 q 629 542 617 419 m 596 750 q 610 699 607 726 q 611 642 613 671 q 606 585 610 613 q 600 533 603 557 q 576 311 589 421 q 553 89 564 201 l 493 89 l 515 296 l 521 356 q 533 473 528 414 q 546 590 539 532 q 553 663 550 628 q 538 732 557 697 q 488 782 519 764 q 419 800 457 800 q 347 782 382 800 q 289 732 313 764 q 268 697 275 715 q 258 662 261 679 q 253 626 254 644 q 250 590 251 608 q 237 461 243 525 q 224 332 231 397 l 219 296 l 197 89 l 138 89 q 161 310 149 200 q 185 533 174 421 q 190 585 188 557 q 197 642 192 613 q 209 699 201 671 q 232 751 217 728 q 317 830 265 801 q 425 858 368 858 q 528 829 483 858 q 596 750 574 800 z "},"o":{"ha":668,"x_min":67,"x_max":697,"o":"m 693 617 l 660 296 q 598 138 650 206 q 474 33 546 69 q 319 -1 401 -3 q 169 51 238 1 q 78 179 104 100 q 67 253 67 217 q 71 331 67 290 l 104 651 q 165 808 114 740 q 289 913 217 876 q 442 948 361 950 q 593 896 524 946 q 649 840 628 871 q 685 768 671 808 q 697 694 697 731 q 693 617 697 657 m 629 571 q 636 640 633 607 q 635 705 639 674 q 619 766 632 736 q 581 825 607 796 q 461 886 529 878 q 329 868 393 894 q 219 785 265 842 q 164 651 172 729 l 135 376 q 128 307 131 340 q 128 242 125 274 q 144 181 132 211 q 183 122 156 151 q 260 71 217 86 q 347 58 303 56 q 435 78 392 60 q 513 127 478 96 q 571 201 547 158 q 600 296 594 244 l 629 571 m 571 788 q 601 729 593 758 q 609 670 608 700 q 605 610 610 640 q 597 547 600 579 q 584 422 590 485 q 571 296 578 358 q 543 209 565 247 q 488 144 521 171 q 415 102 456 117 q 335 88 375 88 q 257 106 294 89 q 192 160 219 124 q 162 218 169 189 q 154 277 154 247 q 158 338 154 307 q 167 400 163 368 q 180 526 174 463 q 193 651 186 589 q 244 774 200 724 q 348 846 289 825 q 468 854 407 867 q 571 788 529 842 m 532 501 q 537 542 533 514 q 543 603 540 571 q 547 663 546 635 q 544 706 549 692 q 508 766 533 743 q 453 796 483 789 q 388 797 422 803 q 326 772 354 790 q 277 722 297 753 q 253 651 257 692 q 242 549 247 600 q 231 446 236 497 q 226 405 229 433 q 221 344 224 376 q 217 284 218 313 q 219 242 215 256 q 281 163 236 185 q 374 150 325 140 q 464 197 424 160 q 511 296 504 235 q 522 399 517 347 q 532 501 526 450 m 518 660 q 512 569 518 614 q 501 478 506 524 q 492 387 496 432 q 482 296 488 342 q 437 209 475 239 q 355 178 399 179 q 276 203 311 176 q 243 288 242 231 q 251 378 246 333 q 263 469 257 424 q 272 560 268 515 q 282 651 276 606 q 306 715 286 689 q 351 755 325 742 q 408 769 378 768 q 464 759 439 771 q 504 722 489 747 q 518 660 519 697 m 397 251 q 417 281 414 265 q 424 314 421 296 q 428 347 426 331 q 431 381 429 364 l 460 651 q 453 685 461 671 q 431 706 444 699 q 399 710 417 713 q 365 696 382 708 q 345 667 349 682 q 339 633 342 651 q 336 600 338 617 q 332 567 335 583 q 318 431 325 499 q 304 296 311 364 q 310 263 301 276 q 333 242 319 249 q 365 237 347 235 q 397 251 382 239 z "},"p":{"ha":668,"x_min":49,"x_max":717,"o":"m 385 947 q 513 938 453 947 q 625 881 572 928 q 694 778 672 838 q 710 651 717 718 q 668 524 703 585 q 576 422 633 464 q 514 385 544 399 q 452 365 483 372 q 389 357 421 358 q 322 356 357 356 l 286 0 l 49 0 l 147 947 l 325 947 l 385 947 m 539 464 q 630 574 600 508 q 649 710 660 640 q 591 826 638 779 q 475 885 544 874 q 425 887 465 886 q 338 888 385 888 q 251 889 292 889 q 201 889 211 889 l 114 58 l 232 58 l 269 414 q 338 413 304 414 q 404 414 371 411 q 471 428 438 417 q 539 464 504 439 m 621 681 q 589 558 624 615 q 493 469 554 501 q 431 449 461 453 q 369 444 401 444 l 243 444 l 206 89 l 146 89 l 226 858 q 274 858 238 858 q 353 858 311 858 q 431 857 394 858 q 478 854 467 856 q 579 793 540 840 q 621 681 618 746 m 440 510 q 522 563 489 524 q 561 651 556 603 q 541 740 567 700 q 471 793 515 779 q 433 797 460 796 q 375 799 406 799 q 317 800 344 800 q 281 800 290 800 l 250 503 q 287 503 260 503 q 344 503 314 503 q 402 506 375 504 q 440 510 429 507 m 532 651 q 501 580 528 611 q 435 538 474 549 q 405 534 426 535 q 358 533 383 533 q 312 533 333 533 q 282 533 290 533 l 307 769 q 337 769 315 769 q 383 769 358 769 q 428 768 407 769 q 458 765 450 767 q 515 723 494 754 q 532 651 536 692 m 472 651 q 465 687 475 671 q 436 708 456 703 q 398 713 417 714 q 360 711 379 711 l 347 592 q 385 590 367 592 q 424 594 404 589 q 456 616 443 600 q 472 651 469 632 z "},"q":{"ha":668,"x_min":68,"x_max":703,"o":"m 699 668 q 692 595 696 632 q 683 522 688 558 q 676 450 679 486 q 668 378 672 414 q 660 305 664 340 q 646 235 656 269 q 618 169 636 201 q 569 104 600 136 l 622 -60 l 365 -60 l 347 0 q 333 -1 342 -1 q 203 31 263 -1 q 108 119 144 63 q 78 187 88 153 q 69 256 69 221 q 72 326 68 290 q 81 399 76 361 q 83 428 81 406 q 89 480 86 450 q 95 543 92 510 q 102 606 99 576 q 109 659 106 636 q 114 689 113 682 q 180 822 131 763 q 300 914 229 882 q 448 944 375 949 q 578 905 521 940 q 669 808 635 869 q 699 668 703 747 m 607 351 q 621 481 614 417 q 635 611 628 546 q 638 678 639 646 q 631 738 638 710 q 607 791 624 765 q 561 840 590 817 q 447 885 513 879 q 319 861 382 890 q 215 774 256 831 q 165 651 174 718 q 151 521 158 585 q 138 392 144 457 q 130 326 133 358 q 127 264 126 294 q 136 203 128 233 q 165 144 144 174 q 212 97 188 114 q 265 70 236 79 q 324 60 293 61 q 392 60 356 58 l 410 -1 l 539 -1 l 501 114 q 553 173 535 147 q 583 224 572 199 q 598 278 593 249 q 607 351 603 308 m 553 806 q 591 756 579 782 q 607 703 603 731 q 608 645 611 675 q 603 583 606 615 q 590 460 596 521 q 576 339 583 400 q 566 268 572 296 q 549 218 560 240 q 519 174 538 196 q 469 119 500 151 l 499 29 l 433 29 l 413 90 q 351 89 381 89 q 294 94 321 89 q 242 115 267 100 q 196 157 218 129 q 167 212 175 183 q 158 269 158 240 q 161 327 157 297 q 168 388 165 357 q 181 510 175 450 q 193 632 186 571 q 231 750 200 699 q 328 833 263 801 q 449 855 388 863 q 553 806 510 847 m 497 242 q 508 283 503 254 q 518 343 514 311 q 524 403 522 375 q 528 444 526 432 q 538 547 533 496 q 550 649 543 597 q 524 747 556 710 q 444 794 492 785 q 348 782 397 804 q 271 703 299 760 q 258 661 264 690 q 249 601 253 632 q 242 541 244 569 q 238 500 239 513 q 227 397 232 447 q 217 294 222 346 q 226 224 213 254 q 265 174 240 193 q 322 149 289 156 q 387 151 354 143 q 449 181 419 158 q 497 242 478 204 m 501 468 q 493 377 496 422 q 482 286 490 332 q 454 224 475 249 q 406 187 433 199 q 348 176 378 175 q 294 192 318 178 q 257 231 271 206 q 247 294 243 257 q 256 385 251 340 q 267 476 261 431 q 274 567 271 521 q 285 657 278 613 q 313 719 292 694 q 362 756 335 744 q 419 767 389 768 q 472 753 449 767 q 510 713 496 739 q 521 649 525 688 q 510 558 515 604 q 501 468 506 513 m 399 250 q 419 279 417 264 q 425 313 422 294 q 429 346 428 329 q 432 379 431 363 q 447 515 439 447 q 461 649 454 582 q 454 682 463 668 q 431 703 446 696 q 400 708 417 710 q 368 694 383 707 q 347 665 351 681 q 340 632 343 650 q 338 599 339 615 q 333 565 336 582 q 319 430 326 497 q 306 294 313 363 q 312 261 303 275 q 335 241 321 247 q 366 236 349 235 q 399 250 383 238 z "},"r":{"ha":668,"x_min":40,"x_max":706,"o":"m 315 949 q 414 949 367 949 q 504 940 461 949 q 585 906 547 931 q 657 835 624 882 q 694 749 683 794 q 701 656 706 703 q 676 562 696 608 q 621 475 656 515 q 660 363 657 419 q 657 244 664 307 q 644 122 650 182 q 632 0 639 63 l 394 0 q 406 113 400 57 q 418 225 411 168 q 420 249 418 233 q 424 280 422 264 q 424 310 425 296 q 417 333 422 325 q 395 349 408 344 q 367 356 382 354 q 338 356 353 357 q 313 356 324 356 l 276 0 l 217 0 l 40 0 l 139 949 l 315 949 m 578 60 q 589 168 583 114 q 600 276 594 222 q 603 337 604 311 q 595 384 601 363 q 577 426 589 406 q 547 475 565 447 q 609 558 583 517 q 640 657 635 599 q 628 754 644 708 q 576 833 611 800 q 491 879 536 869 q 393 889 446 889 l 192 889 l 104 60 l 222 60 l 260 415 q 328 417 294 415 q 396 414 361 419 q 453 386 429 408 q 485 331 478 364 q 485 303 486 322 q 481 263 483 283 q 477 222 479 242 q 474 194 475 203 q 467 128 471 161 q 460 60 463 94 l 578 60 m 574 293 q 563 191 568 242 q 551 89 557 140 l 492 89 q 500 163 496 126 q 507 236 504 200 q 515 308 511 274 q 499 379 518 343 q 449 428 479 411 q 381 444 418 444 l 233 444 l 196 89 l 136 89 l 218 860 l 401 860 q 490 849 451 860 q 563 801 529 838 q 606 726 594 769 q 608 635 617 682 q 570 547 599 583 q 510 475 542 511 q 536 434 524 454 q 558 392 549 414 q 572 347 568 371 q 574 293 576 322 m 431 510 q 513 564 479 525 q 551 651 546 603 q 531 741 557 701 q 461 794 506 781 q 423 799 450 797 q 366 800 396 800 q 308 800 336 800 q 271 800 281 800 l 240 504 q 277 504 250 504 q 335 504 304 504 q 392 506 365 504 q 431 510 419 507 m 449 765 q 506 723 485 754 q 522 651 526 692 q 491 581 518 613 q 425 539 464 550 q 395 535 417 536 q 349 533 374 533 q 302 533 324 533 q 272 533 281 533 l 297 771 q 327 771 306 771 q 373 771 349 771 q 419 769 397 771 q 449 765 440 768 m 463 651 q 456 687 465 671 q 426 708 446 703 q 388 713 407 715 q 350 711 369 711 l 338 593 q 376 591 357 593 q 415 596 394 589 q 447 617 435 601 q 463 651 460 632 z "},"s":{"ha":668,"x_min":61,"x_max":703,"o":"m 697 654 l 460 654 q 443 699 463 682 q 394 711 424 717 q 351 681 367 706 q 343 631 336 657 q 358 606 349 614 q 378 596 367 599 q 402 593 389 593 q 428 592 415 593 q 478 581 456 589 q 525 563 501 574 q 603 498 571 538 q 649 411 635 458 q 660 311 664 364 q 635 207 657 258 q 576 113 613 154 q 492 46 539 72 q 392 8 444 19 q 286 6 339 -3 q 190 40 233 14 q 118 106 147 67 q 75 194 89 144 q 67 299 61 244 l 304 299 q 321 253 301 271 q 369 240 340 235 q 413 270 397 246 q 421 321 428 294 q 406 345 415 338 q 385 356 397 353 q 361 358 374 358 q 336 360 349 358 q 285 370 308 363 q 239 389 263 378 q 161 453 193 414 q 115 540 129 493 q 103 640 100 588 q 129 746 106 693 q 188 838 151 797 q 272 906 225 879 q 372 944 319 933 q 478 946 425 954 q 574 911 531 938 q 646 846 617 885 q 689 758 675 807 q 697 654 703 708 m 508 713 l 636 713 q 602 801 629 763 q 535 862 575 839 q 448 890 496 885 q 350 878 400 894 q 260 828 300 861 q 197 752 221 794 q 165 660 172 710 q 172 564 157 611 q 218 484 188 518 q 293 432 249 450 q 338 421 315 424 q 383 417 360 418 q 431 403 413 414 q 465 371 450 393 q 481 326 478 350 q 477 279 483 303 q 456 235 471 256 q 419 200 442 214 q 372 181 396 185 q 324 183 347 178 q 283 202 301 188 q 256 239 265 217 l 128 239 q 162 151 135 189 q 228 90 189 113 q 316 63 268 68 q 414 74 364 57 q 503 124 464 90 q 567 199 543 157 q 599 291 592 242 q 592 388 606 340 q 547 467 578 433 q 471 519 515 501 q 426 531 449 528 q 381 535 404 533 q 333 548 353 538 q 299 581 314 558 q 283 625 286 601 q 285 672 279 649 q 307 717 292 696 q 344 751 322 738 q 392 769 367 765 q 440 769 417 774 q 481 749 463 764 q 508 713 499 735 m 597 742 l 529 742 q 456 797 501 785 q 367 794 411 808 q 290 742 324 779 q 253 651 257 706 q 273 565 249 603 q 342 513 297 526 q 386 506 364 506 q 429 500 408 506 q 511 458 478 489 q 561 384 546 426 q 571 297 576 342 q 541 208 565 251 q 475 135 517 165 q 385 95 432 104 q 294 97 338 86 q 217 135 251 107 q 167 210 183 164 l 235 210 q 308 155 263 167 q 397 158 353 143 q 474 209 440 172 q 511 300 507 246 q 492 387 517 349 q 422 439 467 425 q 378 446 400 446 q 335 451 356 446 q 253 493 289 461 q 202 567 217 524 q 193 655 188 610 q 223 743 199 700 q 289 817 247 786 q 379 856 332 847 q 469 855 426 865 q 547 816 513 844 q 597 742 581 788 z "},"t":{"ha":599,"x_min":111,"x_max":661,"o":"m 661 949 l 636 711 l 492 711 l 418 0 l 182 0 l 256 711 l 111 711 l 136 949 l 661 949 l 661 949 m 585 771 l 597 889 l 189 889 l 176 771 l 321 771 l 246 60 l 365 60 l 440 771 l 585 771 l 585 771 m 564 860 l 557 800 l 414 800 l 339 89 l 279 89 l 354 800 l 210 800 l 217 860 l 564 860 l 564 860 z "},"u":{"ha":668,"x_min":68,"x_max":729,"o":"m 671 390 q 663 320 667 354 q 651 253 660 286 q 628 187 643 219 q 586 122 613 154 q 472 32 538 64 q 335 0 406 0 q 203 33 263 0 q 107 124 143 65 q 78 188 86 156 q 69 253 69 219 q 72 320 68 286 q 79 390 75 354 l 138 949 l 374 949 l 343 653 q 340 623 340 638 q 336 593 339 608 q 328 510 332 551 q 319 428 324 469 l 307 315 q 313 261 304 285 q 358 238 322 238 q 409 261 394 238 q 426 315 424 285 l 439 428 q 449 522 444 475 q 458 617 453 568 q 460 634 460 625 q 463 653 461 643 l 493 949 l 729 949 l 671 390 m 554 172 q 585 231 575 201 q 601 289 596 260 q 608 347 606 318 q 613 407 610 376 q 638 648 625 529 q 664 889 651 767 l 546 889 l 521 653 l 517 617 q 504 499 510 557 q 492 382 499 440 q 489 351 490 369 q 485 315 488 333 q 478 278 483 296 q 467 247 474 260 q 418 197 449 215 q 353 178 388 178 q 290 197 317 178 q 251 247 263 215 q 247 278 247 260 q 249 315 247 296 q 252 351 250 333 q 256 382 254 369 q 267 488 263 435 q 278 593 272 540 l 285 653 l 310 889 l 190 889 q 165 648 178 767 q 139 407 151 529 q 132 347 136 376 q 126 289 128 318 q 131 231 125 260 q 151 172 136 201 q 228 90 178 119 q 340 60 278 60 q 459 90 403 60 q 554 172 515 119 m 585 415 q 580 363 582 392 q 573 306 578 335 q 560 249 568 276 q 536 197 551 221 q 453 119 504 147 q 343 90 401 90 q 240 119 285 90 q 172 197 194 147 q 159 249 161 221 q 158 306 157 276 q 164 363 160 335 q 171 415 168 392 q 194 638 182 528 q 218 860 206 747 l 276 860 l 254 653 l 247 593 q 235 475 240 533 q 224 358 231 417 q 216 286 219 321 q 232 217 213 251 q 281 167 250 185 q 350 149 313 149 q 422 167 388 149 q 481 217 457 185 q 511 286 507 251 q 519 358 515 321 q 533 488 526 424 q 546 617 539 551 l 550 653 l 572 860 l 632 860 q 608 638 619 747 q 585 415 596 528 z "},"v":{"ha":640,"x_min":122,"x_max":714,"o":"m 714 949 l 467 0 l 172 0 l 122 949 l 361 949 l 381 592 l 475 949 l 714 949 l 714 949 m 421 60 l 639 889 l 519 889 l 340 211 l 306 889 l 186 889 l 229 60 l 421 60 l 421 60 m 601 860 l 399 89 l 339 89 l 317 89 l 257 89 l 218 860 l 278 860 l 314 165 l 358 165 l 542 860 l 601 860 l 601 860 z "},"w":{"ha":1029,"x_min":63,"x_max":1089,"o":"m 429 317 l 446 475 l 460 604 q 461 617 461 608 l 465 653 l 496 950 l 733 950 l 703 653 l 696 594 l 696 593 l 683 475 l 667 317 q 673 263 664 286 q 718 239 682 239 q 768 263 754 239 q 785 317 782 286 l 797 429 q 807 523 803 476 q 817 617 811 569 q 819 635 818 626 q 821 653 819 644 l 851 950 l 1089 950 q 1056 623 1072 786 q 1021 296 1039 460 q 987 184 1014 235 q 919 95 960 133 q 828 33 878 57 q 724 3 778 8 q 618 11 671 -3 q 521 61 565 25 q 358 2 442 7 q 208 33 275 -3 q 102 136 142 68 q 72 296 63 204 q 106 623 88 460 q 140 950 124 786 l 378 950 l 347 653 q 344 623 344 638 q 340 593 343 608 q 332 511 336 553 q 324 429 328 469 l 311 317 q 317 263 308 286 q 363 239 326 239 q 413 263 399 239 q 429 317 426 286 m 963 310 q 993 600 978 456 q 1024 890 1008 744 l 906 890 l 881 653 l 876 617 q 864 500 869 558 q 851 382 858 442 q 849 353 850 371 q 844 316 847 335 q 838 279 842 297 q 826 249 833 261 q 778 198 808 217 q 711 179 747 179 q 649 198 676 179 q 611 249 622 217 q 606 279 607 261 q 607 316 606 297 q 610 353 608 335 q 614 382 613 371 q 626 488 621 435 q 636 594 631 542 q 640 624 639 610 q 643 653 640 638 l 668 890 l 550 890 l 525 653 l 521 617 q 508 500 514 558 q 496 382 503 442 q 493 353 494 371 q 489 316 492 335 q 482 279 486 297 q 471 249 478 261 q 422 198 453 217 q 356 179 392 179 q 294 198 321 179 q 256 249 267 217 q 251 279 251 261 q 251 316 250 297 q 255 353 253 335 q 258 382 257 371 q 270 488 265 435 q 281 593 275 540 l 288 653 l 313 890 l 194 890 q 164 600 179 744 q 133 310 149 456 q 155 172 125 233 q 254 79 185 110 q 323 61 289 64 q 396 67 357 58 q 465 94 433 75 q 529 135 497 113 q 584 94 557 113 q 649 67 611 75 q 720 61 686 58 q 792 79 754 64 q 912 172 869 110 q 963 310 954 233 m 992 861 q 963 588 976 724 q 933 317 949 453 q 888 186 926 243 q 774 103 849 129 q 699 89 732 88 q 638 101 667 90 q 585 131 610 113 q 533 172 560 150 q 472 131 501 150 q 413 101 443 113 q 349 89 382 90 q 276 103 315 88 q 181 186 207 129 q 163 317 156 243 q 192 588 178 453 q 221 861 206 724 l 281 861 l 258 653 l 251 593 q 240 476 244 535 q 228 360 235 418 q 220 288 224 322 q 236 217 217 253 q 285 167 254 185 q 353 150 315 150 q 426 167 392 150 q 485 217 461 185 q 515 288 511 253 q 524 360 519 322 q 537 488 531 424 q 550 617 543 551 q 552 635 551 626 q 554 653 553 644 l 576 861 l 636 861 l 614 653 q 610 624 611 638 q 607 594 610 610 q 595 476 600 535 q 583 360 590 418 q 576 288 579 322 q 592 217 572 253 q 640 167 610 185 q 708 150 671 150 q 781 167 746 150 q 840 217 817 185 q 871 288 867 253 q 879 360 875 322 q 892 488 886 424 q 906 617 899 551 l 910 653 l 932 861 l 992 861 z "},"x":{"ha":668,"x_min":17,"x_max":749,"o":"m 749 949 l 510 474 l 650 0 l 396 0 l 349 154 l 272 0 l 17 0 l 254 474 l 115 949 l 371 949 l 417 793 l 494 949 l 749 949 l 749 949 m 446 474 l 656 889 l 528 889 l 399 633 l 325 889 l 197 889 l 318 474 l 110 60 l 238 60 l 365 314 l 440 60 l 568 60 l 446 474 l 446 474 m 610 860 l 414 474 l 528 89 l 464 89 l 374 394 l 219 89 l 156 89 l 350 474 l 238 860 l 301 860 l 390 554 l 546 860 l 610 860 l 610 860 z "},"y":{"ha":668,"x_min":92,"x_max":729,"o":"m 729 949 q 711 774 719 861 q 693 599 703 686 q 629 433 683 507 q 486 321 575 358 l 453 0 l 217 0 l 250 321 q 131 433 169 358 q 101 599 92 507 q 119 774 111 686 q 138 949 128 861 l 374 949 q 363 836 368 892 q 350 724 357 781 q 344 667 347 696 q 339 611 342 639 q 345 557 336 581 q 390 533 354 533 q 441 557 426 533 q 458 611 456 581 q 464 667 461 639 q 469 724 467 696 q 482 836 476 781 q 493 949 488 892 l 729 949 m 633 585 q 650 737 643 661 q 665 889 657 813 l 546 889 q 533 768 539 828 q 519 647 526 708 q 515 588 517 617 q 492 531 513 560 q 444 489 472 504 q 383 474 415 474 q 328 489 353 474 q 290 531 303 504 q 278 588 275 560 q 283 647 281 617 q 297 768 290 708 q 310 889 303 828 l 192 889 q 174 737 183 813 q 160 585 164 661 q 196 444 154 504 q 249 394 219 413 q 313 360 278 375 l 281 60 l 400 60 l 432 360 q 502 394 468 375 q 565 444 536 413 q 610 510 594 476 q 633 585 626 543 m 617 718 q 610 647 613 682 q 601 576 608 613 q 578 508 594 538 q 533 450 561 478 q 472 408 504 422 q 403 379 439 394 l 372 89 l 314 89 l 344 379 q 285 408 314 394 q 232 450 256 422 q 197 508 207 478 q 188 576 186 538 q 194 647 190 613 q 203 718 199 682 q 210 789 206 754 q 218 860 214 824 l 278 860 q 265 735 271 797 q 251 610 258 672 q 276 493 244 542 q 381 444 308 444 q 497 493 453 444 q 547 610 540 542 q 560 735 554 672 q 574 860 567 797 l 632 860 q 624 789 628 824 q 617 718 619 754 z "},"z":{"ha":706,"x_min":38,"x_max":757,"o":"m 682 236 l 658 0 l 38 0 l 61 236 l 61 236 l 443 711 l 111 711 l 136 947 l 757 947 l 732 711 l 351 236 l 682 236 l 682 236 m 606 58 l 618 178 l 232 178 l 676 729 l 693 889 l 190 889 l 178 769 l 564 769 l 119 217 l 103 58 l 606 58 l 606 58 m 585 147 l 578 89 l 135 89 l 147 207 l 624 800 l 210 800 l 215 858 l 658 858 l 646 739 l 172 147 l 585 147 l 585 147 z "},"B":{"ha":668,"x_min":43,"x_max":708,"o":"m 221 0 l 43 0 l 142 949 l 319 949 q 417 949 369 949 q 507 939 464 949 q 588 906 550 929 q 660 835 626 882 q 697 749 686 794 q 703 655 708 703 q 679 560 699 607 q 625 474 660 514 q 661 387 651 433 q 665 293 671 340 q 639 199 660 246 q 583 114 618 153 q 497 42 540 65 q 410 9 454 18 q 318 0 365 0 q 221 0 271 0 m 640 626 q 644 713 651 675 q 614 789 638 750 q 553 856 586 835 q 481 884 519 876 q 401 890 443 892 q 314 889 358 889 l 196 889 l 108 60 l 226 60 q 313 58 271 60 q 395 64 356 57 q 472 92 435 71 q 547 158 510 114 q 594 235 579 197 q 608 321 608 274 q 592 403 608 368 q 551 474 575 439 q 606 544 582 510 q 640 626 629 579 m 311 860 q 391 862 351 860 q 471 854 431 864 q 542 825 514 846 q 592 767 569 804 q 616 693 613 729 q 607 613 619 657 q 568 538 594 569 q 514 474 542 506 q 554 410 535 442 q 578 335 574 379 q 569 254 581 290 q 529 182 558 218 q 468 124 500 144 q 392 93 436 103 q 310 87 350 85 q 229 89 269 89 l 140 89 l 222 860 l 311 860 m 433 510 q 516 563 482 524 q 556 651 550 603 q 535 740 561 701 q 464 794 510 779 q 426 799 453 797 q 369 800 399 800 q 312 800 339 800 q 275 800 285 800 l 244 504 q 281 504 254 504 q 338 504 307 504 q 395 506 368 504 q 433 510 422 507 m 396 154 q 479 208 446 168 q 518 296 513 247 q 498 385 524 346 q 426 439 472 424 q 388 443 415 442 q 331 444 361 444 q 274 444 301 444 q 238 444 247 444 l 207 149 q 244 149 217 149 q 301 149 271 149 q 358 150 331 149 q 396 154 385 151 m 525 651 q 494 580 521 611 q 428 538 468 549 q 398 534 419 535 q 352 533 376 533 q 306 533 328 533 q 276 533 285 533 l 301 771 q 331 771 310 771 q 377 771 353 771 q 422 769 401 771 q 451 765 443 768 q 509 723 489 754 q 525 651 529 692 m 467 651 q 459 687 469 671 q 429 708 449 703 q 392 713 411 715 q 354 711 374 711 l 342 593 q 379 591 361 593 q 417 594 397 589 q 450 617 436 601 q 467 651 464 632 m 488 296 q 457 226 483 257 q 390 183 431 194 q 360 179 382 181 q 315 178 339 178 q 269 178 290 178 q 239 178 247 178 l 264 415 q 294 415 272 415 q 340 415 315 415 q 385 414 364 415 q 415 410 407 413 q 472 367 451 399 q 488 296 492 336 m 429 296 q 416 338 432 321 q 375 356 400 356 l 317 356 l 304 238 l 363 238 q 407 255 388 238 q 429 296 426 272 z "},"H":{"ha":668,"x_min":36,"x_max":726,"o":"m 664 356 l 628 0 l 392 0 l 428 356 l 310 356 l 274 0 l 36 0 l 72 356 l 97 592 l 135 947 l 372 947 l 335 592 l 453 592 l 490 947 l 726 947 l 689 592 l 664 356 l 664 356 m 575 58 l 663 889 l 543 889 l 506 533 l 269 533 l 307 889 l 189 889 l 101 58 l 219 58 l 257 414 l 493 414 l 456 58 l 575 58 l 575 58 m 629 858 l 549 89 l 489 89 l 526 444 l 231 444 l 193 89 l 133 89 l 214 858 l 274 858 l 238 503 l 533 503 l 569 858 l 629 858 l 629 858 z "},"P":{"ha":668,"x_min":49,"x_max":717,"o":"m 385 947 q 513 938 453 947 q 625 881 572 928 q 694 778 672 838 q 710 651 717 718 q 668 524 703 585 q 576 422 633 464 q 514 385 544 399 q 452 365 483 372 q 389 357 421 358 q 322 356 357 356 l 286 0 l 49 0 l 147 947 l 325 947 l 385 947 m 539 464 q 630 574 600 508 q 649 710 660 640 q 591 826 638 779 q 475 885 544 874 q 425 887 465 886 q 338 888 385 888 q 251 889 292 889 q 201 889 211 889 l 114 58 l 232 58 l 269 414 q 338 413 304 414 q 404 414 371 411 q 471 428 438 417 q 539 464 504 439 m 621 681 q 589 558 624 615 q 493 469 554 501 q 431 449 461 453 q 369 444 401 444 l 243 444 l 206 89 l 146 89 l 226 858 q 274 858 238 858 q 353 858 311 858 q 431 857 394 858 q 478 854 467 856 q 579 793 540 840 q 621 681 618 746 m 440 510 q 522 563 489 524 q 561 651 556 603 q 541 740 567 700 q 471 793 515 779 q 433 797 460 796 q 375 799 406 799 q 317 800 344 800 q 281 800 290 800 l 250 503 q 287 503 260 503 q 344 503 314 503 q 402 506 375 504 q 440 510 429 507 m 532 651 q 501 580 528 611 q 435 538 474 549 q 405 534 426 535 q 358 533 383 533 q 312 533 333 533 q 282 533 290 533 l 307 769 q 337 769 315 769 q 383 769 358 769 q 428 768 407 769 q 458 765 450 767 q 515 723 494 754 q 532 651 536 692 m 472 651 q 465 687 475 671 q 436 708 456 703 q 398 713 417 714 q 360 711 379 711 l 347 592 q 385 590 367 592 q 424 594 404 589 q 456 616 443 600 q 472 651 469 632 z "},"D":{"ha":668,"x_min":38,"x_max":703,"o":"m 697 651 l 660 296 q 624 181 653 235 q 551 86 596 126 q 451 23 507 46 q 333 0 394 0 l 274 0 l 215 0 l 38 0 l 136 947 l 314 947 l 372 947 l 432 947 q 544 924 493 947 q 632 861 596 901 q 685 767 668 821 q 697 651 703 713 m 600 296 l 638 651 q 629 743 643 700 q 586 818 615 786 q 516 869 557 850 q 426 888 475 888 l 367 888 l 308 888 l 189 888 l 101 58 l 279 58 l 339 58 q 433 77 388 58 q 513 128 478 96 q 572 203 549 160 q 600 296 594 247 m 608 651 l 571 296 q 546 215 567 253 q 494 149 525 178 q 424 105 463 121 q 342 89 385 89 l 311 89 l 282 89 l 135 89 l 215 858 l 304 858 l 363 858 l 422 858 q 501 842 465 858 q 563 797 538 825 q 600 732 588 769 q 608 651 613 694 m 511 296 l 549 651 q 543 709 551 682 q 517 756 535 736 q 473 787 499 775 q 417 799 447 799 l 268 799 l 258 710 l 221 356 l 200 147 l 349 147 q 408 159 379 147 q 458 191 436 171 q 494 238 479 211 q 511 296 508 265 m 519 651 l 482 296 q 467 249 479 271 q 438 212 456 228 q 399 187 421 196 q 351 178 376 178 l 233 178 l 251 356 l 289 710 l 296 769 l 414 769 q 459 760 439 769 q 494 735 479 751 q 515 698 508 719 q 519 651 522 676 m 424 293 q 432 369 429 332 q 439 443 435 406 q 447 519 443 482 q 454 594 451 557 q 460 630 457 613 q 460 665 463 647 l 460 668 l 460 669 q 458 671 458 669 l 458 672 q 458 675 457 674 q 457 676 458 676 l 457 679 q 456 681 456 681 q 454 683 456 682 l 453 685 l 451 686 q 451 688 451 688 q 449 692 450 690 q 446 693 447 693 q 444 696 446 694 q 442 699 444 696 q 439 701 439 700 q 436 703 439 701 q 434 703 435 703 q 432 704 433 704 q 430 706 431 706 q 428 707 429 706 q 425 708 426 707 q 421 708 424 708 q 385 712 403 714 q 347 710 367 710 l 335 592 l 297 236 q 335 235 317 236 q 374 239 354 233 q 407 259 393 244 q 424 293 421 274 z "}}}
